<?xml version="1.0" encoding="UTF-8" standalone="no"?>
<!-- Created with Inkscape (http://www.inkscape.org/) -->

<svg
   xmlns:dc="http://purl.org/dc/elements/1.1/"
   xmlns:cc="http://creativecommons.org/ns#"
   xmlns:rdf="http://www.w3.org/1999/02/22-rdf-syntax-ns#"
   xmlns:svg="http://www.w3.org/2000/svg"
   xmlns="http://www.w3.org/2000/svg"
   xmlns:sodipodi="http://sodipodi.sourceforge.net/DTD/sodipodi-0.dtd"
   xmlns:inkscape="http://www.inkscape.org/namespaces/inkscape"
   width="280.065mm"
   height="171.02989mm"
   viewBox="0 0 280.065 171.02989"
   version="1.1"
   id="svg8"
   inkscape:version="0.92.4 (5da689c313, 2019-01-14)"
   sodipodi:docname="handhasking.svg">
  <defs
     id="defs2" />
  <sodipodi:namedview
     id="base"
     pagecolor="#ffffff"
     bordercolor="#666666"
     borderopacity="1.0"
     inkscape:pageopacity="0.0"
     inkscape:pageshadow="2"
     inkscape:zoom="0.49497475"
     inkscape:cx="185.01936"
     inkscape:cy="46.252426"
     inkscape:document-units="mm"
     inkscape:current-layer="g3742"
     showgrid="false"
     inkscape:window-width="1920"
     inkscape:window-height="1013"
     inkscape:window-x="-9"
     inkscape:window-y="-9"
     inkscape:window-maximized="1"
     fit-margin-top="0"
     fit-margin-left="0"
     fit-margin-right="0"
     fit-margin-bottom="0" />
  <metadata
     id="metadata5">
    <rdf:RDF>
      <cc:Work
         rdf:about="">
        <dc:format>image/svg+xml</dc:format>
        <dc:type
           rdf:resource="http://purl.org/dc/dcmitype/StillImage" />
        <dc:title></dc:title>
      </cc:Work>
    </rdf:RDF>
  </metadata>
  <g
     inkscape:label="Calque 1"
     inkscape:groupmode="layer"
     id="layer1"
     transform="translate(33.708379,-74.250105)">
    <g
       id="g3742"
       transform="matrix(0.26458333,0,0,0.26458333,-53.406971,8.5131414)">
      <g
         id="g3870"
         transform="translate(88.571395,-197.14286)">
        <path
           style="color:#000000;font-style:normal;font-variant:normal;font-weight:normal;font-stretch:normal;font-size:medium;line-height:normal;font-family:sans-serif;font-variant-ligatures:normal;font-variant-position:normal;font-variant-caps:normal;font-variant-numeric:normal;font-variant-alternates:normal;font-feature-settings:normal;text-indent:0;text-align:start;text-decoration:none;text-decoration-line:none;text-decoration-style:solid;text-decoration-color:#000000;letter-spacing:normal;word-spacing:normal;text-transform:none;writing-mode:lr-tb;direction:ltr;text-orientation:mixed;dominant-baseline:auto;baseline-shift:baseline;text-anchor:start;white-space:normal;shape-padding:0;clip-rule:nonzero;display:inline;overflow:visible;visibility:visible;opacity:1;isolation:auto;mix-blend-mode:normal;color-interpolation:sRGB;color-interpolation-filters:linearRGB;solid-color:#000000;solid-opacity:1;vector-effect:none;fill-opacity:1;fill-rule:nonzero;stroke:#000000;stroke-width:8;stroke-linecap:butt;stroke-linejoin:miter;stroke-miterlimit:4;stroke-dasharray:none;stroke-dashoffset:0;stroke-opacity:1;color-rendering:auto;image-rendering:auto;shape-rendering:auto;text-rendering:auto;enable-background:accumulate"
           d="m 559.20898,449.73047 c -7.36049,-0.20598 -15.92122,-0.16096 -26.2246,0.0566 -29.59032,0.6249 -38.43867,1.81335 -52.2754,7.02148 -10.76229,4.05093 -18.39214,7.84623 -29.07421,16.33789 -10.68208,8.49167 -24.43069,21.67361 -47.55665,44.55274 -13.19913,13.05823 -29.71107,29.29852 -36.6875,36.08398 -10.81845,10.5224 -68.54323,67.01574 -91.29101,89.34375 -16.75977,16.45048 -23.56735,33.67497 -20.84766,52.90625 2.7399,19.37488 15.26346,38.41209 31.7461,48.24024 18.07744,10.77902 41.25918,11.6013 61.58398,2.21094 6.95419,-3.21296 12.86152,-7.61704 28.31836,-21.07813 5.97025,-5.19938 17.38106,-15.09323 25.35547,-21.98437 42.75418,-36.94644 54.08826,-46.76502 60.00391,-51.98047 8.84643,-7.79949 15.92025,-12.50005 22.39843,-14.92383 10.36354,-3.8775 23.25604,-1.89978 32.23633,4.95508 0.19487,0.14875 1.23364,1.10446 2.83594,2.64453 1.6023,1.54006 3.8278,3.70671 6.60351,6.42773 5.55143,5.44204 13.30538,13.10237 22.69532,22.41992 18.77988,18.63511 44.10273,43.89662 71.43359,71.28321 42.30035,42.38662 67.24259,67.48856 81.88477,82.57422 14.64218,15.08565 19.00187,20.23729 20.01757,22.375 1.16111,2.44373 1.78481,4.043 2.13282,6.26953 0.23192,1.48379 0.33747,3.25708 0.37764,5.72842 0.0201,1.23708 0.0238,2.64906 0.0188,4.2872 -0.0318,10.28196 -0.20293,11.25388 -3.25,17.7832 -3.93721,8.43676 -10.54432,14.96721 -19.76367,19.50586 -6.13509,3.02032 -7.14438,3.2129 -16.42969,3.2129 -4.62571,0 -7.20603,-0.061 -9.15625,-0.43946 -1.95022,-0.37846 -3.31366,-1.0675 -5.61328,-2.4082 -0.64555,-0.37635 -2.01778,-1.44556 -3.87109,-3.03516 -1.85331,-1.58959 -4.21617,-3.71068 -6.96094,-6.24804 -5.48954,-5.07472 -12.50793,-11.81325 -20.06836,-19.29883 -11.21956,-11.10843 -24.64434,-22.93092 -35.68164,-32.06055 -5.51865,-4.56481 -10.43973,-8.4552 -14.19336,-11.24805 -1.87681,-1.39642 -3.46151,-2.51853 -4.68945,-3.3164 -0.61397,-0.39894 -1.13809,-0.71784 -1.57227,-0.95117 -0.43418,-0.23334 -0.759,-0.38508 -1.08008,-0.44532 -10.49117,-1.96816 -19.30394,8.95373 -14.81836,18.40625 l 0.043,0.0918 0.0742,0.0664 c 0,0 37.37574,33.3884 47.82031,43.74023 10.43732,10.34463 16.38937,16.56785 19.96289,21.63086 3.57353,5.06301 4.79224,8.95412 5.81446,14.82422 2.78328,15.98266 -5.87172,31.72172 -21.52539,39.05859 -4.91415,2.30327 -6.80618,2.63281 -15.00586,2.63282 -6.84915,-10e-6 -10.63764,-0.31157 -15.98047,-3.73829 -5.34283,-3.42671 -12.22954,-10.03483 -24.94336,-22.59179 C 552.5278,929.31779 510.0547,892.28901 510.0547,892.28901 l -0.002,0.002 c -0.007,-0.006 -0.0103,-0.0119 -0.0176,-0.0176 l -0.42969,0.51758 c -0.0579,0.008 -0.1012,0.017 -0.19531,0.0195 -0.59486,0.0161 -1.75318,-0.11234 -3.0586,-0.26367 -1.30542,-0.15134 -2.77762,-0.32307 -4.11523,-0.37696 -1.33761,-0.0539 -2.523,-0.0217 -3.38086,0.36914 -3.05848,1.39355 -5.62212,4.93702 -6.86524,9.27149 -0.28819,1.00485 0.14344,2.19931 0.95118,3.67383 0.80773,1.47451 2.0501,3.22677 3.6289,5.20312 3.15761,3.95271 7.66075,8.79512 12.67383,13.91211 10.02617,10.23399 22.09338,21.56695 29.42774,28.94141 3.83214,3.85314 7.58621,7.82072 10.54296,11.10546 2.95676,3.28475 5.14429,5.94542 5.73047,6.95704 11.2231,19.36815 4.306,42.41044 -15.74023,52.43354 -5.38276,2.6914 -6.73151,2.9473 -15.27539,2.9473 -6.92571,0 -11.09381,-0.4573 -16.00977,-3.252 -4.91596,-2.7946 -10.60378,-7.9861 -20.33203,-17.4648 -4.27098,-4.1614 -17.50483,-17.14941 -29.81641,-29.15233 -6.15578,-6.00145 -12.08168,-11.75594 -16.54296,-16.04101 -2.23065,-2.14254 -4.09536,-3.91804 -5.44141,-5.17383 -0.67303,-0.62789 -1.21551,-1.12652 -1.61328,-1.47851 -0.19889,-0.176 -0.36168,-0.31378 -0.49024,-0.41797 -0.0643,-0.0521 -0.11926,-0.0953 -0.17187,-0.13282 -0.0526,-0.0375 -0.0823,-0.0693 -0.19531,-0.11328 -4.28815,-1.66795 -9.13875,-0.2346 -12.72461,2.69922 -3.58586,2.93382 -5.96943,7.41881 -5.22852,11.98438 0.0663,0.40822 0.27561,0.6717 0.59766,1.1289 0.32204,0.45721 0.77005,1.02968 1.33203,1.71094 1.12395,1.36253 2.70396,3.15681 4.60937,5.25586 3.81083,4.1981 8.92242,9.6128 14.25,15.17773 10.65516,11.12982 22.17528,22.85752 25.86524,26.61322 10.32112,10.5051 13.63647,16.1402 15.52344,26.3477 2.93482,15.8759 -5.37584,32.5579 -19.72266,39.6035 -10.6217,5.2163 -22.97825,3.1499 -37.18164,-6.3594 -2.71224,-1.8158 -7.69295,-5.6965 -12.28906,-9.4726 -4.59612,-3.7762 -8.86333,-7.5105 -10.04102,-8.8672 -0.0884,-0.1019 -0.0988,-0.1011 -0.18945,-0.1856 -0.0907,-0.084 -0.21737,-0.1997 -0.37891,-0.3476 -0.32308,-0.2958 -0.78444,-0.7163 -1.37109,-1.2481 -1.17331,-1.0636 -2.84303,-2.5706 -4.87696,-4.4043 -4.06784,-3.6673 -9.59564,-8.6401 -15.53515,-13.9765 -11.87903,-10.6729 -25.40488,-22.8006 -32.19336,-28.8496 -1.64213,-1.4633 -8.39657,-7.5771 -14.9961,-13.57227 -17.57417,-15.9649 -29.09649,-25.65977 -39.13476,-31.91992 -10.03827,-6.26014 -18.59391,-9.06685 -30.10938,-11.23047 -0.78455,-0.1474 -2.41975,-0.25025 -4.93164,-0.34375 -2.51188,-0.0935 -5.86463,-0.16827 -9.9375,-0.22851 -8.14573,-0.12048 -19.17264,-0.17822 -32.09179,-0.18946 -25.83831,-0.0225 -59.24729,0.14277 -92.31055,0.37305 -66.126524,0.46057 -130.867187,1.18164 -130.867188,1.18164 l -0.486328,0.004 c 0.439104,-0.15548 0.976312,1.45791 0.984125,0.99216 0.4785254,-0.005 64.496935,-0.7189 130.375001,-1.17774 33.0619,-0.23027 66.47139,-0.39552 92.30469,-0.37305 12.91664,0.0112 23.93902,0.0691 32.07617,0.18946 4.06857,0.0602 7.41712,0.1355 9.91601,0.22851 2.4989,0.093 4.18457,0.21333 4.78516,0.32617 11.45004,2.15133 19.82742,4.89918 29.76367,11.09571 9.93625,6.19652 21.42996,15.85844 38.99219,31.8125 6.60048,5.99607 13.34603,12.10077 15.00391,13.57817 6.78542,6.0462 20.311,18.1733 32.18945,28.8457 5.93922,5.3361 11.46608,10.3098 15.5332,13.9765 2.03356,1.8334 3.70298,3.3399 4.875,4.4024 0.58602,0.5312 1.04837,0.9504 1.36914,1.2441 0.16039,0.1468 0.28433,0.2629 0.3711,0.3438 0.0868,0.081 0.18085,0.1807 0.11718,0.1074 1.35411,1.5599 5.55007,5.1987 10.16016,8.9863 4.61009,3.7876 9.57882,7.6625 12.36719,9.5293 14.37181,9.6221 27.18697,11.8262 38.17969,6.4277 14.76937,-7.2531 23.28439,-24.3535 20.26562,-40.6836 -1.91363,-10.3517 -5.42224,-16.3096 -15.79492,-26.8671 -3.68985,-3.7557 -15.20664,-15.4803 -25.85547,-26.60356 -5.32441,-5.56163 -10.43303,-10.97271 -14.23242,-15.15821 -1.8997,-2.09274 -3.47277,-3.88071 -4.57813,-5.2207 -0.55268,-0.66999 -0.98841,-1.22911 -1.28515,-1.65039 -0.29675,-0.42128 -0.44096,-0.78235 -0.42969,-0.71289 -0.66949,-4.12544 1.50796,-8.29599 4.875,-11.05078 3.3626,-2.75117 7.84888,-4.03796 11.71289,-2.54297 0.026,0.0187 0.0652,0.0497 0.11719,0.0918 0.10877,0.0881 0.26427,0.222 0.45703,0.39258 0.38551,0.34114 0.92415,0.83428 1.59375,1.45898 1.3392,1.24939 3.20084,3.02326 5.42969,5.16406 4.45768,4.28162 10.38216,10.03648 16.53711,16.03711 12.30988,12.00126 25.54204,24.98577 29.81835,29.15237 9.73676,9.487 15.44627,14.7242 20.53516,17.6172 5.08889,2.8929 9.53281,3.3828 16.50391,3.3828 8.56712,0 10.29821,-0.3405 15.72265,-3.0528 20.51397,-10.2569 27.64411,-34.00834 16.15821,-53.83004 -0.73052,-1.2607 -2.88117,-3.82511 -5.85157,-7.125 -2.97039,-3.29989 -6.73416,-7.27756 -10.57812,-11.14258 -7.35985,-7.40008 -19.41818,-18.7245 -29.42188,-28.93554 -5.00184,-5.10552 -9.49076,-9.93254 -12.60742,-13.83399 -1.55833,-1.95072 -2.77329,-3.67332 -3.5332,-5.06054 -0.75991,-1.38723 -1.00372,-2.44192 -0.86719,-2.91797 1.18128,-4.11886 3.65984,-7.42541 6.31836,-8.63672 0.52034,-0.23708 1.64409,-0.33094 2.92578,-0.2793 1.2817,0.0516 2.7359,0.21784 4.04102,0.36914 1.30512,0.15131 2.44219,0.29199 3.19922,0.27149 0.18925,-0.005 0.35634,-0.0188 0.51953,-0.0586 0.0454,-0.0111 0.0934,-0.0768 0.14258,-0.0937 1.27566,1.11279 42.00595,36.64803 53.20507,47.70899 12.71728,12.56037 19.60318,19.19046 25.10743,22.7207 5.50424,3.53024 9.63748,3.89648 16.51953,3.89649 8.22911,0 10.45523,-0.39699 15.42969,-2.72852 16.02372,-7.51031 24.95041,-23.69708 22.08789,-40.13477 -1.03279,-5.93078 -2.33223,-10.05409 -5.98438,-15.22851 -3.65215,-5.17442 -9.63159,-11.41185 -20.07617,-21.76367 -10.50209,-10.40884 -47.57811,-43.5272 -47.75977,-43.68946 -4.06395,-8.70828 4.04596,-18.74505 13.75391,-16.92383 0.0897,0.0168 0.39331,0.13108 0.78906,0.34376 0.39575,0.21267 0.90282,0.5189 1.50196,0.9082 1.19826,0.77859 2.77042,1.8907 4.63671,3.2793 3.73258,2.77718 8.64364,6.6602 14.15235,11.21679 11.0174,9.11318 24.42895,20.92454 35.61718,32.00195 7.56717,7.49225 14.59229,14.23652 20.09376,19.32227 2.75073,2.54287 5.11996,4.67097 6.98828,6.27344 1.86831,1.60247 3.20852,2.667 4.01757,3.13867 2.32028,1.35274 3.83728,2.12167 5.92774,2.52734 2.09046,0.40568 4.71201,0.45703 9.3457,0.45704 9.3023,0 10.70798,-0.28229 16.8711,-3.31641 9.39105,-4.62319 16.19332,-11.33179 20.22851,-19.97852 3.05873,-6.55432 3.31193,-7.90953 3.34375,-18.20507 0.015,-4.92017 -0.0429,-7.83497 -0.4082,-10.17188 -0.36527,-2.33691 -1.04436,-4.07128 -2.21875,-6.54297 -1.2088,-2.54409 -5.5498,-7.54941 -20.20117,-22.64453 -14.65137,-15.09512 -39.59554,-40.19677 -81.89649,-82.58398 -27.33184,-27.38757 -52.65397,-52.64837 -71.43554,-71.28516 -9.39079,-9.31839 -17.14714,-16.98118 -22.70118,-22.42578 -2.77701,-2.7223 -5.00276,-4.88939 -6.60937,-6.4336 -1.60661,-1.5442 -2.53498,-2.42342 -2.92188,-2.71875 -9.27211,-7.0776 -22.47209,-9.10899 -33.19336,-5.09765 -6.65142,2.4886 -13.81381,7.26887 -22.70898,15.11133 -5.90736,5.20815 -17.24403,15.02636 -59.99805,51.97265 -7.97559,6.89218 -19.38507,16.78707 -25.35742,21.98828 -15.44316,13.44919 -21.24762,17.76621 -28.08203,20.92383 -20.0418,9.25961 -42.87684,8.43571 -60.65039,-2.16211 -16.18516,-9.65077 -28.57623,-28.47611 -31.26953,-47.52148 -2.67591,-18.92172 3.94841,-35.751 20.55664,-52.05274 22.74601,-22.32628 80.47852,-78.82514 91.28906,-89.33984 6.98277,-6.79164 23.49249,-23.0299 36.69336,-36.08984 23.12156,-22.87478 36.86198,-36.04246 47.47656,-44.48047 10.61458,-8.43801 18.08888,-12.15212 28.80469,-16.18555 13.75287,-5.17657 22.37528,-6.3326 51.94336,-6.95703 41.17867,-0.86964 54.20898,0.9843 74.20703,10.54687 10.73742,5.13443 24.36224,14.85487 39.38477,28.12891 5.22565,4.61747 11.0512,9.74472 12.95117,11.39844 1.89039,1.64546 6.20726,5.47055 9.58398,8.49414 14.81787,13.26833 22.38136,19.95786 29.96875,26.50586 4.45596,3.84556 13.65794,11.94799 20.44141,17.99609 24.03066,21.42556 28.98045,24.17329 40.41211,29.27149 16.22333,7.23516 18.01814,9.94599 50.68945,15.66797 2.09891,0.36759 7.15103,0.61443 14.52735,0.79492 7.37631,0.18048 17.03528,0.28527 28.17382,0.33203 22.2771,0.0935 50.47667,-0.0443 78.17774,-0.26953 55.40214,-0.45046 108.80667,-1.25196 108.80667,-1.25196 l -0.016,-1 c 0,0 -53.40115,0.80154 -108.79889,1.25196 -27.69886,0.22521 -55.89658,0.363 -78.16601,0.26953 -11.13471,-0.0467 -20.78793,-0.15184 -28.15234,-0.33203 -7.36442,-0.1802 -12.48239,-0.44715 -14.37891,-0.7793 -32.62497,-5.71386 -34.17169,-8.3357 -50.45508,-15.59766 -11.4086,-5.08792 -16.14255,-7.69678 -40.1543,-29.10546 -6.78773,-6.05191 -15.98883,-14.14947 -20.45507,-18.00391 -7.58121,-6.54266 -15.13875,-13.22719 -29.95508,-26.49414 -3.37988,-3.02642 -7.69294,-6.85132 -9.59375,-8.50586 -1.89144,-1.64629 -7.72077,-6.77413 -12.94531,-11.39063 -15.06567,-13.31215 -28.73206,-23.07907 -39.61524,-28.2832 -15.07961,-7.2107 -26.35405,-10.08323 -48.43555,-10.70117 z"
           id="path3882"
           inkscape:connector-curvature="0"
           sodipodi:nodetypes="cccsscscccscccccsssscsscccssccscssccccccscccccsccccccccscsscsccsccsccccccsccccscccccccsccccsscsssscccsccccsscccccccsccccsccccccccccsccsccccsccsccccccsscscsscccccscscccccccccssscccccsscccsccssscccccssccssccscccscccccccc" />
      </g>
    </g>
  </g>
</svg>
