<?xml version="1.0" encoding="UTF-8" standalone="no"?>
<!-- Created with Inkscape (http://www.inkscape.org/) -->

<svg
   xmlns:dc="http://purl.org/dc/elements/1.1/"
   xmlns:cc="http://creativecommons.org/ns#"
   xmlns:rdf="http://www.w3.org/1999/02/22-rdf-syntax-ns#"
   xmlns:svg="http://www.w3.org/2000/svg"
   xmlns="http://www.w3.org/2000/svg"
   xmlns:sodipodi="http://sodipodi.sourceforge.net/DTD/sodipodi-0.dtd"
   xmlns:inkscape="http://www.inkscape.org/namespaces/inkscape"
   width="119.0625mm"
   height="58.472916mm"
   viewBox="0 0 119.0625 58.472916"
   version="1.1"
   id="svg8"
   sodipodi:docname="logo-svg.svg"
   inkscape:version="0.92.3 (2405546, 2018-03-11)">
  <defs
     id="defs2" />
  <sodipodi:namedview
     id="base"
     pagecolor="#000000"
     bordercolor="#666666"
     borderopacity="1.0"
     inkscape:pageopacity="0.6627451"
     inkscape:pageshadow="2"
     inkscape:zoom="1.4"
     inkscape:cx="175.56909"
     inkscape:cy="168.00802"
     inkscape:document-units="mm"
     inkscape:current-layer="g840"
     showgrid="false"
     inkscape:pagecheckerboard="true"
     inkscape:window-width="1366"
     inkscape:window-height="715"
     inkscape:window-x="-8"
     inkscape:window-y="-8"
     inkscape:window-maximized="1"
     fit-margin-top="0"
     fit-margin-left="0"
     fit-margin-right="0"
     fit-margin-bottom="0"
     inkscape:snap-text-baseline="true" />
  <metadata
     id="metadata5">
    <rdf:RDF>
      <cc:Work
         rdf:about="">
        <dc:format>image/svg+xml</dc:format>
        <dc:type
           rdf:resource="http://purl.org/dc/dcmitype/StillImage" />
        <dc:title></dc:title>
      </cc:Work>
    </rdf:RDF>
  </metadata>
  <g
     inkscape:label="Calque 1"
     inkscape:groupmode="layer"
     id="layer1"
     transform="translate(-43.278275,-98.430214)">
    <g
       id="g840"
       transform="translate(-0.75595254,-0.37797666)">
      <path
         style="fill:#e15c36;stroke-width:0.26458332;fill-opacity:1"
         d="m 104.26277,157.0794 c -40.178484,0.25556 -20.089243,0.12778 0,0 z m 55.3312,-1.94273 c -0.20514,-0.12986 -6.1669,-0.23787 -13.25236,-0.2401 l -12.87948,-0.004 -4.53584,-2.38125 c -2.49471,-1.30969 -4.64636,-2.38125 -4.78146,-2.38125 -0.13509,0 -0.24562,0.53578 -0.24562,1.19062 0,0.89259 -0.10138,1.19063 -0.40502,1.19063 -0.34563,0 -0.39412,-0.4752 -0.33073,-3.24115 l 0.0743,-3.24115 h 3.3073 3.30729 v 1.7198 1.71979 l -2.09377,0.13229 c -1.59781,0.10095 -2.00518,0.20177 -1.71979,0.42563 0.20568,0.16134 2.04148,1.14361 4.07954,2.18282 l 3.70556,1.88947 h 12.63605 c 9.64354,0 12.76433,-0.0783 13.17774,-0.33073 0.45838,-0.27987 0.59745,-0.25557 0.90427,0.15801 0.60546,0.8161 -0.11592,1.73735 -0.94797,1.21062 z m -30.40309,-7.3879 v -1.05834 h -2.64583 -2.64584 v 1.05834 1.05833 h 2.64584 2.64583 z m -43.656254,1.21611 -5.953125,-3.78226 -0.07341,3.66432 c -0.06044,3.01719 -0.142216,3.66433 -0.463021,3.66433 -0.326975,0 -0.389609,-0.68553 -0.389609,-4.2642 0,-4.11734 0.01802,-4.25948 0.523062,-4.1274 1.090375,0.28513 12.910312,7.97648 12.780002,8.31607 -0.07178,0.18706 -0.20707,0.33365 -0.300643,0.32575 -0.09357,-0.008 -2.849036,-1.71637 -6.123255,-3.79661 z m 1.499764,-1.24294 -7.892944,-5.01917 -16.512037,0.0756 c -17.190738,0.0787 -17.024467,0.0885 -16.61338,-0.98273 0.171642,-0.44729 1.036644,-0.53625 1.286306,-0.13229 0.106098,0.17167 5.784403,0.26458 16.169956,0.26458 h 16.006436 l 7.525633,4.7625 c 4.139097,2.61938 7.585268,4.7625 7.658158,4.7625 0.282721,0 0.129652,-8.3637 -0.158342,-8.6517 -0.471241,-0.47124 -0.01701,-1.44629 0.629729,-1.35174 0.549596,0.0803 0.55688,0.16317 0.483812,5.50126 -0.07206,5.26408 -0.122761,5.84429 -0.507561,5.80773 -0.100552,-0.01 -3.734646,-2.276 -8.075766,-5.03654 z m 10.053709,4.87752 c -0.09701,-0.097 -0.176389,-1.64483 -0.176389,-3.43958 0,-2.72423 0.06555,-3.2632 0.396875,-3.2632 0.329771,0 0.396875,0.51447 0.396875,3.04271 v 3.04271 h 2.64584 2.64583 v -3.04271 c 0,-2.52824 0.0671,-3.04271 0.39687,-3.04271 0.33036,0 0.39688,0.52329 0.39688,3.12209 0,2.0755 -0.10643,3.22851 -0.3175,3.43958 -0.33977,0.33977 -6.060203,0.46619 -6.385281,0.14111 z m 18.103331,-0.19221 c -0.20249,-0.24398 -0.28053,-1.38449 -0.23084,-3.37344 l 0.0751,-3.00484 3.37344,-0.074 c 2.88377,-0.0633 3.37343,-0.0153 3.37343,0.33073 0,0.33879 -0.4745,0.40478 -2.91041,0.40478 h -2.91042 v 1.05834 1.05833 h 1.32292 c 0.99954,0 1.32292,0.097 1.32292,0.39687 0,0.29986 -0.32338,0.39688 -1.32292,0.39688 h -1.32292 v 1.19062 1.19063 h 2.91042 c 2.41065,0 2.91041,0.0682 2.91041,0.39687 0,0.56148 -6.12678,0.58777 -6.59111,0.0283 z m 18.09015,0.0402 c -0.0771,-0.20097 -0.10634,-1.72734 -0.0649,-3.39193 l 0.0753,-3.02654 3.37344,-0.074 3.37343,-0.074 v 2.77103 c 0,2.48106 0.056,2.81023 0.53495,3.14572 0.94896,0.66468 0.0394,0.90454 -3.645,0.96125 -2.77627,0.0427 -3.53615,-0.0221 -3.64716,-0.31143 z m 4.92724,-1.54341 c -0.88249,-0.79779 -1.09383,-1.13104 -0.8634,-1.36147 0.23043,-0.23044 0.45587,-0.1635 0.92099,0.27346 0.33872,0.31822 0.69749,0.57858 0.79725,0.57858 0.0998,0 0.18138,-0.83344 0.18138,-1.85208 v -1.85209 h -2.64583 -2.64583 v 2.64584 2.64583 l 2.71198,-0.0108 2.71198,-0.0109 -1.16852,-1.05636 z m 3.33701,1.70316 c -0.10127,-0.10127 -0.18412,-1.65256 -0.18412,-3.44731 0,-2.72423 0.0656,-3.2632 0.39688,-3.2632 0.32977,0 0.39687,0.51447 0.39687,3.04271 v 3.04271 h 2.64583 2.64584 v -3.04271 c 0,-2.55465 0.0649,-3.04271 0.40478,-3.04271 0.34602,0 0.39403,0.48967 0.33073,3.37344 l -0.074,3.37344 -3.18933,0.0739 c -1.75412,0.0406 -3.27217,-0.009 -3.37343,-0.11024 z m 8.19435,-0.008 c -0.097,-0.097 -0.17638,-1.64483 -0.17638,-3.43958 v -3.2632 h 3.30729 c 2.76342,0 3.30729,0.0653 3.30729,0.39688 0,0.32872 -0.49977,0.39687 -2.91042,0.39687 h -2.91042 v 1.05834 1.05833 h 1.32292 c 0.99954,0 1.32292,0.097 1.32292,0.39687 0,0.29986 -0.32338,0.39688 -1.32292,0.39688 h -1.32292 v 1.19062 1.19063 h 2.91042 c 2.41065,0 2.91042,0.0682 2.91042,0.39687 0,0.33042 -0.52427,0.39688 -3.1309,0.39688 -1.722,0 -3.21028,-0.0794 -3.3073,-0.17639 z m -44.62639,-3.39549 c 0,-2.23575 0.0946,-3.30729 0.29204,-3.30729 0.16062,0 1.12426,0.43732 2.14141,0.97182 l 1.84938,0.97182 1.964,-0.97182 c 1.08021,-0.5345 2.0811,-0.97182 2.22422,-0.97182 0.15667,0 0.2602,1.31591 0.2602,3.30729 0,2.76343 -0.0653,3.3073 -0.39687,3.3073 -0.32762,0 -0.39688,-0.4855 -0.39688,-2.78194 v -2.78193 l -1.57995,0.79756 c -0.86898,0.43865 -1.82328,0.79756 -2.12067,0.79756 -0.2974,0 -1.19376,-0.36856 -1.99193,-0.81901 l -1.45119,-0.81901 v 2.80338 c 0,2.31551 -0.0691,2.80339 -0.39688,2.80339 -0.33161,0 -0.39688,-0.54387 -0.39688,-3.3073 z m 26.19375,0.65787 c 0,-1.58926 -0.12597,-2.85114 -0.31481,-3.15351 -0.24688,-0.39533 -0.23989,-0.59436 0.0324,-0.92246 0.19096,-0.23009 0.50704,-0.41835 0.70238,-0.41835 0.51023,0 0.9176,0.87303 0.62396,1.33717 -0.13314,0.21044 -0.2439,1.60301 -0.24612,3.0946 -0.003,2.23245 -0.0742,2.71198 -0.40093,2.71198 -0.32636,0 -0.39688,-0.47078 -0.39688,-2.64943 z m -14.76652,-5.30622 c 0.0518,-0.1555 0.8879,-0.61756 1.85792,-1.02681 1.29791,-0.54757 1.79731,-0.65644 1.89103,-0.41223 0.0811,0.21132 -0.51607,0.58429 -1.64399,1.02681 -1.96458,0.77078 -2.24262,0.82523 -2.10496,0.41223 z m -34.181394,-5.3181 c -1.238916,-0.34976 -1.389538,-0.53949 -1.078246,-1.35826 0.258893,-0.68094 0.283435,-0.68727 1.191959,-0.30766 2.087692,0.87229 4.38899,0.12752 4.380153,-1.41756 -0.0062,-1.07826 -0.331205,-1.40431 -2.428391,-2.43595 -2.329407,-1.14586 -3.24722,-2.26738 -3.019959,-3.6902 0.401434,-2.5133 2.995009,-3.75041 6.071619,-2.89611 0.928923,0.25794 1.000847,0.34288 0.83839,0.99017 -0.229714,0.91524 -0.205835,0.90185 -1.041262,0.58422 -1.902481,-0.72332 -3.855929,-0.0132 -3.855929,1.40168 0,0.80326 0.791752,1.47859 2.947492,2.51406 1.385801,0.66566 1.852946,1.04637 2.211772,1.80253 0.514061,1.08331 0.409022,2.4117 -0.273005,3.45261 -0.907236,1.38461 -3.642072,2.01051 -5.944593,1.36047 z m 33.220504,-0.0856 c -1.53688,-0.54749 -2.31444,-1.22643 -3.05636,-2.6687 -1.49185,-2.90013 -0.48882,-7.27603 2.00244,-8.73601 3.77021,-2.20948 7.42046,-0.26291 7.94961,4.2393 l 0.17333,1.47479 h -4.43689 -4.43689 l 0.14029,1.04594 c 0.36156,2.69559 2.84509,3.9563 6.24816,3.17174 1.32176,-0.30472 1.31787,-0.30626 1.41458,0.55845 0.0624,0.55813 -0.0843,0.68335 -1.11877,0.95455 -1.61876,0.42439 -3.62188,0.40794 -4.8795,-0.0401 z m 4.8795,-7.55121 c 0,-0.87393 -0.69166,-2.27124 -1.35384,-2.73504 -0.78679,-0.55109 -2.84168,-0.5608 -3.61792,-0.0171 -0.63483,0.44465 -1.64283,2.21322 -1.64283,2.88239 0,0.34511 0.50584,0.40742 3.3073,0.40742 3.14832,0 3.30729,-0.0258 3.30729,-0.53767 z m 4.7625,-4.98425 v -12.93025 l -3.37344,-0.44224 c -9.96298,-1.30608 -22.320569,-1.81732 -29.964064,-1.23962 -14.58419,1.10229 -25.999613,4.54954 -34.421102,10.39456 l -1.480476,1.02754 0.620581,1.22581 c 0.756794,1.49486 0.799473,3.23016 0.116435,4.73417 -0.861015,1.8959 -3.094236,3.01653 -6.011411,3.01653 h -1.686527 v 3.30729 3.3073 H 47.963793 46.90546 v -8.30131 -8.3013 l 0.826823,-0.16536 c 1.517701,-0.30354 4.809735,-0.17021 6.330067,0.25637 l 1.503064,0.42174 1.557002,-1.17339 c 7.493552,-5.64731 18.729995,-9.54563 32.38096,-11.2341 5.468046,-0.67634 23.248834,-0.67641 29.765624,-1.2e-4 2.47386,0.25673 4.82534,0.53236 5.22552,0.61252 l 0.72761,0.14574 v -5.31269 -5.31269 h 1.19062 1.19063 v 5.40294 5.40293 l 0.7276,0.13916 c 0.40018,0.0765 1.23362,0.21552 1.85209,0.30886 l 1.12447,0.16971 v -3.85972 -3.85971 h 1.19063 1.19062 v 4.06695 4.06696 l 1.38907,0.17723 c 2.69003,0.34323 13.36532,2.56769 19.46558,4.05613 l 6.17028,1.50552 -0.1683,0.89706 c -0.0926,0.49338 -0.2707,1.16643 -0.39587,1.49566 l -0.22759,0.5986 -3.79002,-1.02356 c -4.62347,-1.24864 -15.17053,-3.69518 -19.13585,-4.43883 -6.99205,-1.31128 -8.67601,-1.61214 -9.02336,-1.61214 -0.31095,0 -0.36935,2.00812 -0.36935,12.7 v 12.7 h -1.19063 -1.19062 z m -72.110572,3.67546 c 0.594827,-0.28796 1.287261,-0.87187 1.538744,-1.2976 0.544285,-0.9214 0.60065,-2.90868 0.101845,-3.59083 -0.341317,-0.46678 -0.388537,-0.46153 -1.192056,0.13253 -1.160364,0.8579 -4.273381,4.5485 -4.273381,5.06626 0,0.43315 2.749904,0.21001 3.824848,-0.31036 z m -0.880622,-4.28002 1.549124,-1.76085 -0.830949,-0.28967 c -0.457022,-0.15932 -1.527557,-0.28967 -2.378967,-0.28967 h -1.548018 v 3.2147 3.2147 l 0.829843,-1.16418 c 0.456413,-0.6403 1.526948,-1.95656 2.378967,-2.92503 z m 79.076604,1.78562 c 0,-13.02586 -0.17783,-11.79854 1.65365,-11.41274 l 0.7276,0.15326 v 11.50434 11.50433 h -1.19062 -1.19063 z m 9.19799,11.48574 c -2.46899,-0.74342 -3.90632,-2.86909 -3.90632,-5.77707 0,-2.15663 0.39119,-3.4611 1.40777,-4.69439 1.53322,-1.86006 4.21204,-2.46522 6.43819,-1.45442 1.46861,0.66684 2.47192,2.3659 2.66691,4.51631 l 0.14396,1.58761 h -4.40237 c -4.80317,0 -4.6049,-0.0784 -4.12989,1.63187 0.59554,2.14417 3.00834,3.22765 5.8368,2.62106 1.46388,-0.31395 1.91238,-0.11661 1.75939,0.77415 -0.13587,0.79102 -4.05012,1.32613 -5.81444,0.79488 z m 4.47923,-8.26936 c -0.28298,-2.11021 -2.48199,-3.2088 -4.54314,-2.26967 -0.74553,0.33968 -1.5612,1.52881 -1.82909,2.66654 l -0.17132,0.72761 h 3.34717 3.34717 z M 59.927313,138.628 c -1.060943,-0.89273 -1.506727,-2.39153 -1.128774,-3.79513 0.474899,-1.76365 2.07252,-2.80027 4.95888,-3.2176 0.990641,-0.14323 1.890463,-0.26278 1.999603,-0.26566 0.352039,-0.009 0.210792,-1.45736 -0.199258,-2.04279 -0.821056,-1.17222 -3.130097,-1.38813 -4.924077,-0.46042 -0.673889,0.34848 -0.718656,0.33199 -0.883684,-0.32554 -0.09561,-0.38094 -0.07795,-0.77821 0.03925,-0.88282 1.028028,-0.91764 5.032963,-1.07725 6.382646,-0.25438 1.526731,0.93082 1.852561,2.13718 1.948522,7.21423 l 0.084,4.44415 -0.926042,-0.0785 c -0.729283,-0.0618 -0.943991,-0.2049 -1.010521,-0.67332 l -0.08448,-0.59479 -0.944656,0.72052 c -0.759746,0.57949 -1.289722,0.74002 -2.707517,0.82013 -1.600279,0.0904 -1.840427,0.0343 -2.603889,-0.60806 z m 4.282274,-1.03798 c 1.296515,-0.54171 1.745873,-1.3472 1.745873,-3.12952 v -1.52863 h -1.199123 c -2.315814,0 -3.933794,1.16217 -3.933794,2.82557 0,0.70565 0.185926,1.1071 0.729129,1.57434 0.837789,0.72064 1.41665,0.77688 2.657915,0.25824 z m 7.490765,1.38106 c -0.591608,-0.21582 -0.703429,-0.3817 -0.565576,-0.839 0.267653,-0.88789 0.535289,-1.04235 1.194673,-0.68945 0.335484,0.17954 1.233099,0.33545 1.994705,0.34646 1.688462,0.0244 2.479222,-0.55435 2.479222,-1.81451 0,-1.03619 -0.428159,-1.43379 -2.686073,-2.49438 -2.589607,-1.2164 -3.293058,-2.55873 -2.399501,-4.57877 0.709657,-1.60429 1.875948,-2.14655 4.319817,-2.00846 2.098905,0.1186 2.485911,0.36387 2.114698,1.34024 -0.256013,0.67337 -0.267829,0.67586 -1.383098,0.29162 -2.282455,-0.78637 -4.074496,0.54582 -3.123803,2.32221 0.154892,0.28942 1.163648,0.92817 2.241674,1.41944 2.864448,1.30537 3.702452,2.99716 2.549488,5.14699 -0.715632,1.33438 -1.922243,1.8725 -4.142616,1.84751 -1.020916,-0.0115 -2.18804,-0.14194 -2.59361,-0.2899 z m 22.868515,0.0277 c -2.81318,-1.12675 -4.106477,-4.39498 -3.185896,-8.05093 0.35075,-1.39296 1.859857,-3.23884 3.056784,-3.73895 1.125323,-0.47019 3.623906,-0.46507 4.535615,0.009 1.66972,0.86875 2.69884,2.74158 2.69884,4.91143 v 1.33142 h -4.359011 -4.35901 l 0.160385,0.85989 c 0.456419,2.44707 2.018178,3.49205 4.951053,3.31276 1.037735,-0.0634 2.051883,-0.16503 2.253673,-0.22577 0.22065,-0.0664 0.44535,0.16666 0.56376,0.58475 0.17951,0.63387 0.10945,0.72137 -0.79445,0.99219 -1.186553,0.3555 -4.647137,0.36422 -5.521743,0.0139 z m 5.149274,-7.54376 c -0.0883,-0.23018 -0.1606,-0.63776 -0.1606,-0.90574 0,-0.80058 -1.27139,-2.08168 -2.24766,-2.26483 -1.875269,-0.35181 -3.622207,0.85769 -4.005281,2.77307 l -0.163203,0.81602 h 3.368673 c 2.963081,0 3.349331,-0.0504 3.208071,-0.41852 z m 4.866489,1.74143 v -6.08541 h 0.92604 0.92604 l 10e-4,1.25677 0.001,1.25677 0.52576,-0.86232 c 0.63666,-1.0442 1.98857,-1.91347 2.97799,-1.91482 0.66468,-7.9e-4 0.72755,0.0848 0.727,0.9912 -5.3e-4,0.92322 -0.0567,0.9942 -0.80765,1.02106 -1.22878,0.044 -2.04236,0.60657 -2.62869,1.81775 -0.4562,0.9421 -0.53194,1.63311 -0.53194,4.85149 v 3.75293 h -1.05834 -1.05833 z"
         id="path850"
         inkscape:connector-curvature="0"
         sodipodi:nodetypes="ccccccsssccccccccscsccccccccccccccccsscscccscsccscssccscscssscccsssscccccsscccssscccsscccccccscccccccssccccccccccssscccssccccccscssscccssscccssscsscccssssccsccssssccsccsscccccccccccsccscccccccccccccccccsccssscccssccssccccccccccsssccccccccccccccccccscccccsssccccccccscsccsccccssccccccscsccccsccccccccccccccccccccscccccccccscssccccccsccssccccccccccscccccccccccscscsccccccccccccscccc" />
    </g>
    <path
       style="fill:#000000;stroke-width:0.26458332"
       d=""
       id="path826"
       inkscape:connector-curvature="0" />
  </g>
</svg>
