<?xml version="1.0" encoding="UTF-8" standalone="no"?>
<!-- Generator: Adobe Illustrator 19.0.0, SVG Export Plug-In . SVG Version: 6.00 Build 0)  -->

<svg
   xmlns:dc="http://purl.org/dc/elements/1.1/"
   xmlns:cc="http://creativecommons.org/ns#"
   xmlns:rdf="http://www.w3.org/1999/02/22-rdf-syntax-ns#"
   xmlns:svg="http://www.w3.org/2000/svg"
   xmlns="http://www.w3.org/2000/svg"
   xmlns:sodipodi="http://sodipodi.sourceforge.net/DTD/sodipodi-0.dtd"
   xmlns:inkscape="http://www.inkscape.org/namespaces/inkscape"
   version="1.1"
   id="Capa_1"
   x="0px"
   y="0px"
   viewBox="0 0 54 54"
   style="enable-background:new 0 0 54 54;"
   xml:space="preserve"
   sodipodi:docname="light-off.svg"
   inkscape:version="0.92.3 (2405546, 2018-03-11)"><metadata
   id="metadata122"><rdf:RDF><cc:Work
       rdf:about=""><dc:format>image/svg+xml</dc:format><dc:type
         rdf:resource="http://purl.org/dc/dcmitype/StillImage" /><dc:title></dc:title></cc:Work></rdf:RDF></metadata><defs
   id="defs120" /><sodipodi:namedview
   pagecolor="#ffffff"
   bordercolor="#666666"
   borderopacity="1"
   objecttolerance="10"
   gridtolerance="10"
   guidetolerance="10"
   inkscape:pageopacity="0"
   inkscape:pageshadow="2"
   inkscape:window-width="1366"
   inkscape:window-height="705"
   id="namedview118"
   showgrid="false"
   inkscape:zoom="19.851852"
   inkscape:cx="36.254242"
   inkscape:cy="55.802415"
   inkscape:window-x="-8"
   inkscape:window-y="-8"
   inkscape:window-maximized="1"
   inkscape:current-layer="g85" />
<g
   id="g85"
   transform="matrix(1,0,0,-1,0.20149254,54.242537)">
	<path
   d="m 26.798507,8.2014925 c -9.374,0 -16.9999995,7.6260005 -16.9999995,17.0000005 0,7.112 4.3909995,13.412 10.9999995,15.9 v 9.1 c 0,0.553 0.447,1 1,1 h 1 v 2 c 0,0.553 0.447,1 1,1 h 6 c 0.553,0 1,-0.447 1,-1 v -2 h 1 c 0.553,0 1,-0.447 1,-1 v -9.1 c 6.609,-2.488 11,-8.788 11,-15.9 0,-9.374 -7.626,-17.0000005 -17,-17.0000005 z m 3,41.0000005 c -0.553,0 -1,0.447 -1,1 v 2 h -4 v -2 c 0,-0.553 -0.447,-1 -1,-1 h -1 v -5 h 8 v 5 z m 1.688,-9.758 c -0.411,0.135 -0.688,0.519 -0.688,0.95 v 1.808 h -8 v -1.808 c 0,-0.432 -0.277,-0.815 -0.688,-0.95 -6.167,-2.028 -10.312,-7.752 -10.312,-14.242 0,-8.271 6.729,-15 15,-15 8.271,0 15,6.729 15,15 0,6.49 -4.145,12.214 -10.312,14.242 z"
   id="path67"
   inkscape:connector-curvature="0" />
	
	
	
	
	
	
	
	<path
   d="m 27,13 c -6.617,0 -12,5.383 -12,12 0,0.553 0.447,1 1,1 0.553,0 1,-0.447 1,-1 0,-5.514 4.486,-10 10,-10 0.553,0 1,-0.447 1,-1 0,-0.553 -0.447,-1 -1,-1 z"
   id="path83"
   inkscape:connector-curvature="0" />
</g>
<g
   id="g87">
</g>
<g
   id="g89">
</g>
<g
   id="g91">
</g>
<g
   id="g93">
</g>
<g
   id="g95">
</g>
<g
   id="g97">
</g>
<g
   id="g99">
</g>
<g
   id="g101">
</g>
<g
   id="g103">
</g>
<g
   id="g105">
</g>
<g
   id="g107">
</g>
<g
   id="g109">
</g>
<g
   id="g111">
</g>
<g
   id="g113">
</g>
<g
   id="g115">
</g>
</svg>