<?xml version="1.0" encoding="UTF-8" standalone="no"?>
<!-- Generator: Adobe Illustrator 19.0.0, SVG Export Plug-In . SVG Version: 6.00 Build 0)  -->

<svg
   xmlns:dc="http://purl.org/dc/elements/1.1/"
   xmlns:cc="http://creativecommons.org/ns#"
   xmlns:rdf="http://www.w3.org/1999/02/22-rdf-syntax-ns#"
   xmlns:svg="http://www.w3.org/2000/svg"
   xmlns="http://www.w3.org/2000/svg"
   xmlns:sodipodi="http://sodipodi.sourceforge.net/DTD/sodipodi-0.dtd"
   xmlns:inkscape="http://www.inkscape.org/namespaces/inkscape"
   version="1.1"
   id="Capa_1"
   x="0px"
   y="0px"
   viewBox="0 0 53 53"
   style="enable-background:new 0 0 53 53;"
   xml:space="preserve"
   sodipodi:docname="idea (1).svg"
   inkscape:version="0.92.3 (2405546, 2018-03-11)"><metadata
   id="metadata240"><rdf:RDF><cc:Work
       rdf:about=""><dc:format>image/svg+xml</dc:format><dc:type
         rdf:resource="http://purl.org/dc/dcmitype/StillImage" /><dc:title></dc:title></cc:Work></rdf:RDF></metadata><defs
   id="defs238" /><sodipodi:namedview
   pagecolor="#ffffff"
   bordercolor="#666666"
   borderopacity="1"
   objecttolerance="10"
   gridtolerance="10"
   guidetolerance="10"
   inkscape:pageopacity="0"
   inkscape:pageshadow="2"
   inkscape:window-width="1366"
   inkscape:window-height="705"
   id="namedview236"
   showgrid="false"
   inkscape:zoom="4.4528302"
   inkscape:cx="26.5"
   inkscape:cy="26.5"
   inkscape:window-x="-8"
   inkscape:window-y="-8"
   inkscape:window-maximized="1"
   inkscape:current-layer="Capa_1" />
<path
   style="fill:#efce4a"
   d="m 26.5,44 c -8.837,0 -16,-7.164 -16,-16 0,-7.089 4.615,-13.091 11,-15.192 V 3 h 2 V 0 h 6 v 3 h 2 v 9.808 c 6.385,2.101 11,8.103 11,15.192 0,8.836 -7.163,16 -16,16 z"
   id="path183"
   inkscape:connector-curvature="0" />
<g
   id="g199"
   transform="matrix(1,0,0,-1,0,53)">
	<path
   style="fill:#efce4a"
   d="m 26.5,0 c -0.553,0 -1,0.447 -1,1 v 4 c 0,0.553 0.447,1 1,1 0.553,0 1,-0.447 1,-1 V 1 c 0,-0.553 -0.447,-1 -1,-1 z"
   id="path185"
   inkscape:connector-curvature="0" />
	<path
   style="fill:#efce4a"
   d="m 50.5,24 h -4 c -0.553,0 -1,0.447 -1,1 0,0.553 0.447,1 1,1 h 4 c 0.553,0 1,-0.447 1,-1 0,-0.553 -0.447,-1 -1,-1 z"
   id="path187"
   inkscape:connector-curvature="0" />
	<path
   style="fill:#efce4a"
   d="m 6.5,24 h -4 c -0.553,0 -1,0.447 -1,1 0,0.553 0.447,1 1,1 h 4 c 0.553,0 1,-0.447 1,-1 0,-0.553 -0.447,-1 -1,-1 z"
   id="path189"
   inkscape:connector-curvature="0" />
	<path
   style="fill:#efce4a"
   d="m 42.764,7.322 -2.828,2.828 c -0.391,0.391 -0.391,1.023 0,1.414 0.195,0.195 0.451,0.293 0.707,0.293 0.256,0 0.512,-0.098 0.707,-0.293 l 2.828,-2.828 c 0.391,-0.391 0.391,-1.023 0,-1.414 -0.391,-0.391 -1.024,-0.39 -1.414,0 z"
   id="path191"
   inkscape:connector-curvature="0" />
	<path
   style="fill:#efce4a"
   d="m 11.65,38.436 -2.828,2.828 c -0.391,0.391 -0.391,1.023 0,1.414 0.195,0.195 0.451,0.293 0.707,0.293 0.256,0 0.512,-0.098 0.707,-0.293 l 2.828,-2.828 c 0.391,-0.391 0.391,-1.023 0,-1.414 -0.391,-0.391 -1.023,-0.391 -1.414,0 z"
   id="path193"
   inkscape:connector-curvature="0" />
	<path
   style="fill:#efce4a"
   d="m 41.35,38.436 c -0.391,-0.391 -1.023,-0.391 -1.414,0 -0.391,0.391 -0.391,1.023 0,1.414 l 2.828,2.828 c 0.195,0.195 0.451,0.293 0.707,0.293 0.256,0 0.512,-0.098 0.707,-0.293 0.391,-0.391 0.391,-1.023 0,-1.414 z"
   id="path195"
   inkscape:connector-curvature="0" />
	<path
   style="fill:#efce4a"
   d="m 10.236,7.322 c -0.391,-0.391 -1.023,-0.391 -1.414,0 -0.391,0.391 -0.391,1.023 0,1.414 l 2.828,2.828 c 0.195,0.195 0.451,0.293 0.707,0.293 0.256,0 0.512,-0.098 0.707,-0.293 0.391,-0.391 0.391,-1.023 0,-1.414 z"
   id="path197"
   inkscape:connector-curvature="0" />
</g>
<path
   style="fill:#f7e6a1"
   d="m 15.5,27 c -0.553,0 -1,0.447 -1,1 0,6.617 5.383,12 12,12 0.553,0 1,-0.447 1,-1 0,-0.553 -0.447,-1 -1,-1 -5.514,0 -10,-4.486 -10,-10 0,-0.553 -0.447,-1 -1,-1 z"
   id="path201"
   inkscape:connector-curvature="0" />
<polygon
   style="fill:#556080"
   points="21.5,50 23.5,50 23.5,53 29.5,53 29.5,50 31.5,50 31.5,43 21.5,43 "
   id="polygon203"
   transform="matrix(1,0,0,-1,0,53)" />
<g
   id="g205">
</g>
<g
   id="g207">
</g>
<g
   id="g209">
</g>
<g
   id="g211">
</g>
<g
   id="g213">
</g>
<g
   id="g215">
</g>
<g
   id="g217">
</g>
<g
   id="g219">
</g>
<g
   id="g221">
</g>
<g
   id="g223">
</g>
<g
   id="g225">
</g>
<g
   id="g227">
</g>
<g
   id="g229">
</g>
<g
   id="g231">
</g>
<g
   id="g233">
</g>
</svg>