<?xml version="1.0" encoding="UTF-8" standalone="no"?>
<!-- Created with Inkscape (http://www.inkscape.org/) -->

<svg
   xmlns:dc="http://purl.org/dc/elements/1.1/"
   xmlns:cc="http://creativecommons.org/ns#"
   xmlns:rdf="http://www.w3.org/1999/02/22-rdf-syntax-ns#"
   xmlns:svg="http://www.w3.org/2000/svg"
   xmlns="http://www.w3.org/2000/svg"
   xmlns:sodipodi="http://sodipodi.sourceforge.net/DTD/sodipodi-0.dtd"
   xmlns:inkscape="http://www.inkscape.org/namespaces/inkscape"
   width="420mm"
   height="50mm"
   viewBox="0 0 420 50"
   version="1.1"
   id="SVGRoot"
   inkscape:version="0.92.3 (2405546, 2018-03-11)"
   sodipodi:docname="banniere-ordi.svg">
  <sodipodi:namedview
     id="base"
     pagecolor="#000000"
     bordercolor="#999999"
     borderopacity="1.0"
     inkscape:pageopacity="1.0"
     inkscape:pageshadow="0"
     inkscape:zoom="0.7"
     inkscape:cx="907.53067"
     inkscape:cy="265.20104"
     inkscape:document-units="mm"
     inkscape:current-layer="g825"
     showgrid="false"
     inkscape:window-width="1366"
     inkscape:window-height="705"
     inkscape:window-x="-8"
     inkscape:window-y="-8"
     inkscape:window-maximized="1"
     showguides="true"
     inkscape:guide-bbox="true">
    <sodipodi:guide
       position="172.07366,32.933702"
       orientation="1,0"
       id="guide848"
       inkscape:locked="false" />
    <sodipodi:guide
       position="157.10855,32.933702"
       orientation="0,1"
       id="guide850"
       inkscape:locked="false" />
    <sodipodi:guide
       position="247.95238,17.172067"
       orientation="1,0"
       id="guide871"
       inkscape:locked="false" />
    <sodipodi:guide
       position="211.66666,119.0625"
       orientation="1,0"
       id="guide841"
       inkscape:locked="false" />
  </sodipodi:namedview>
  <defs
     id="defs1443" />
  <metadata
     id="metadata1446">
    <rdf:RDF>
      <cc:Work
         rdf:about="">
        <dc:format>image/svg+xml</dc:format>
        <dc:type
           rdf:resource="http://purl.org/dc/dcmitype/StillImage" />
        <dc:title />
      </cc:Work>
    </rdf:RDF>
  </metadata>
  <g
     id="layer1"
     inkscape:groupmode="layer"
     inkscape:label="Calque 1"
     transform="translate(0,-247)">
    <g
       transform="matrix(0.26458333,0,0,0.26458333,127.07817,231.9551)"
       id="g825">
      <path
         inkscape:connector-curvature="0"
         id="path827"
         d="m 283.68063,237.48301 -7.56827,-7.57383 -12.41448,-0.60589 c -11.25208,-0.54917 -12.44694,-0.83284 -12.76118,-3.02952 -0.42206,-2.95067 14.79015,-40.10008 16.26436,-39.71887 5.3376,1.38018 12.46981,4.70187 17.44706,8.1256 7.78024,5.35187 13.19748,7.07566 20.61944,6.56124 3.30109,-0.22883 6.00164,-0.12693 6.00123,0.22641 -0.001,1.42032 -16.07373,40.66497 -17.23075,42.07392 -0.68416,0.83312 -1.5916,1.51476 -2.01651,1.51476 -0.42493,0 -4.17832,-3.40822 -8.3409,-7.57382 z m 62.14264,4.74278 c -1.93492,-2.9531 -16.37806,-38.06584 -16.37806,-39.81676 0,-0.53756 3.13556,-0.98272 6.96791,-0.98925 7.15833,-0.012 15.60153,-3.21225 22.11555,-8.38211 1.66625,-1.32242 5.83071,-3.48702 9.25436,-4.81025 l 6.22484,-2.40584 8.16233,19.92314 c 6.71231,16.38379 7.89433,20.24602 6.65377,21.74083 -1.14011,1.37373 -4.2205,1.81774 -12.61088,1.81774 h -11.10224 l -6.62359,6.75431 c -8.90487,9.0807 -10.30788,9.76406 -12.66399,6.16819 z m -45.46152,-58.64915 c -0.99975,-0.38406 -3.99898,-2.45035 -6.66497,-4.59175 -2.66597,-2.14144 -7.77577,-4.849 -11.35508,-6.01685 -8.23971,-2.6884 -10.50688,-4.99738 -12.86218,-13.09934 -1.19178,-4.09956 -3.87609,-8.83767 -7.23859,-12.77695 -6.47491,-7.58555 -7.22385,-9.67959 -5.57959,-15.60056 1.62672,-5.8578 1.62672,-14.22036 0,-20.07814 -1.6502,-5.9424 -0.81768,-8.26367 5.52511,-15.40531 3.48525,-3.924192 5.90351,-8.192269 7.23313,-12.766007 2.02602,-6.969258 6.60125,-12.662809 10.21538,-12.712284 3.61884,-0.04959 11.62679,-4.413926 17.62619,-9.606372 5.60276,-4.849176 6.27498,-5.111014 10.89785,-4.245309 6.55472,1.227507 16.96098,1.242457 23.84366,0.03425 5.51267,-0.967706 5.67631,-0.89987 12.30013,5.098691 4.74888,4.300623 8.67539,6.649894 13.41952,8.029047 7.66385,2.227949 11.12755,5.802093 13.05995,13.476394 0.71022,2.820471 3.67025,7.975341 6.66521,11.607401 6.64406,8.057379 7.28509,10.421069 5.39923,19.908819 -1.10278,5.54812 -1.15228,8.74919 -0.18888,12.21885 2.43968,8.78661 1.74364,11.96228 -4.22909,19.29517 -3.05228,3.74739 -6.52876,9.78446 -7.72833,13.4206 -2.84777,8.63212 -5.19104,11.03377 -12.97294,13.29603 -3.53852,1.02866 -8.679,3.74622 -11.42329,6.03903 -6.79274,5.67515 -9.81722,6.21753 -17.32303,3.10655 -7.72325,-3.20111 -9.95961,-3.22206 -17.7131,-0.16592 -6.36601,2.50924 -7.83116,2.71533 -10.90629,1.53399 z m 35.3428,-27.88954 c 7.30081,-3.2295 15.01848,-11.03537 18.67483,-18.88826 4.15908,-8.93271 4.15908,-24.18438 0,-33.11707 -3.62215,-7.779428 -10.56184,-14.838074 -18.36264,-18.677402 -8.90924,-4.384861 -22.78372,-4.19861 -32.21411,0.432469 -30.5915,15.022863 -27.93048,59.916883 4.23285,71.412383 7.89547,2.82193 19.79203,2.32225 27.66907,-1.16212 z"
         style="fill:#424b6c;stroke-width:1.21181107" />
      <path
         sodipodi:nodetypes="cccccc"
         inkscape:connector-curvature="0"
         id="path849-3-9"
         d="m 113.50066,121.36516 56.84631,-30.763954 -56.84631,-34.130017 -593.79804,0.406375 0,64.487596 z"
         style="fill:#e05b35;stroke-width:2.00500774" />
      <path
         sodipodi:nodetypes="cccccc"
         inkscape:connector-curvature="0"
         id="path849-3-9-0"
         d="m 513.95999,245.96111 -56.84631,-30.76396 56.84631,-34.13002 593.79801,0.40638 v 64.4876 z"
         style="fill:#e05b35;stroke-width:2.00500774" />
    </g>
  </g>
</svg>
