<?xml version="1.0" standalone="no"?><!-- Generator: Gravit.io --><svg xmlns="http://www.w3.org/2000/svg" xmlns:xlink="http://www.w3.org/1999/xlink" style="isolation:isolate" viewBox="0 0 50 50" width="50" height="50"><defs><clipPath id="_clipPath_1hnKz5eB7RDbQHuOx4QtpvyE1teI2Whe"><rect width="50" height="50"/></clipPath></defs><g clip-path="url(#_clipPath_1hnKz5eB7RDbQHuOx4QtpvyE1teI2Whe)"><path d=" M 41.945 44.4 L 41.945 44.4 C 42.18 44.543 42.139 45.043 41.855 45.515 L 41.855 45.515 C 41.571 45.987 41.147 46.256 40.91 46.115 L 40.91 46.115 C 40.673 45.974 25.045 36.25 6.033 24.413 L 6.033 24.413 C 5.463 24.058 5.463 23.514 6.033 23.198 L 6.033 23.198 C 25.045 12.668 40.677 4.015 40.92 3.885 L 40.92 3.885 C 41.163 3.755 41.571 4.044 41.83 4.53 L 41.83 4.53 C 42.089 5.016 42.103 5.515 41.86 5.645 L 41.86 5.645 C 41.617 5.775 26.747 13.783 8.675 23.517 L 8.675 23.517 C 8.313 23.712 8.314 24.048 8.677 24.267 L 8.677 24.267 C 26.803 35.235 41.71 44.257 41.945 44.4 Z " fill="rgb(0,0,0)"/></g></svg>