<?xml version="1.0" standalone="no"?><!-- Generator: Gravit.io --><svg xmlns="http://www.w3.org/2000/svg" xmlns:xlink="http://www.w3.org/1999/xlink" style="isolation:isolate" viewBox="0 0 50 50" width="50" height="50"><defs><clipPath id="_clipPath_7uPKqQdvZevTnKx8eR2MqSocZQaYhKLA"><rect width="50" height="50"/></clipPath></defs><g clip-path="url(#_clipPath_7uPKqQdvZevTnKx8eR2MqSocZQaYhKLA)"><path d=" M 5.758 44.4 L 5.758 44.4 C 5.524 44.543 5.564 45.043 5.848 45.515 L 5.848 45.515 C 6.132 45.987 6.556 46.256 6.793 46.115 L 6.793 46.115 C 7.031 45.974 22.658 36.25 41.67 24.413 L 41.67 24.413 C 42.24 24.058 42.24 23.514 41.67 23.198 L 41.67 23.198 C 22.658 12.668 7.026 4.015 6.783 3.885 L 6.783 3.885 C 6.54 3.755 6.133 4.044 5.873 4.53 L 5.873 4.53 C 5.614 5.016 5.6 5.515 5.843 5.645 L 5.843 5.645 C 6.086 5.775 20.956 13.783 39.028 23.517 L 39.028 23.517 C 39.39 23.712 39.389 24.048 39.026 24.267 L 39.026 24.267 C 20.9 35.235 5.993 44.257 5.758 44.4 Z " fill="rgb(0,0,0)"/></g></svg>