<?xml version="1.0" encoding="UTF-8" standalone="no"?>
<!-- Generator: Adobe Illustrator 16.0.0, SVG Export Plug-In . SVG Version: 6.00 Build 0)  -->

<svg
   xmlns:dc="http://purl.org/dc/elements/1.1/"
   xmlns:cc="http://creativecommons.org/ns#"
   xmlns:rdf="http://www.w3.org/1999/02/22-rdf-syntax-ns#"
   xmlns:svg="http://www.w3.org/2000/svg"
   xmlns="http://www.w3.org/2000/svg"
   xmlns:sodipodi="http://sodipodi.sourceforge.net/DTD/sodipodi-0.dtd"
   xmlns:inkscape="http://www.inkscape.org/namespaces/inkscape"
   version="1.1"
   id="Capa_1"
   x="0px"
   y="0px"
   width="35px"
   height="35px"
   viewBox="0 0 35 35"
   style="enable-background:new 0 0 35 35;"
   xml:space="preserve"
   sodipodi:docname="smartphone-light-offfffff.svg"
   inkscape:version="0.92.3 (2405546, 2018-03-11)"><metadata
   id="metadata980"><rdf:RDF><cc:Work
       rdf:about=""><dc:format>image/svg+xml</dc:format><dc:type
         rdf:resource="http://purl.org/dc/dcmitype/StillImage" /><dc:title></dc:title></cc:Work></rdf:RDF></metadata><defs
   id="defs978" /><sodipodi:namedview
   pagecolor="#ffffff"
   bordercolor="#666666"
   borderopacity="1"
   objecttolerance="10"
   gridtolerance="10"
   guidetolerance="10"
   inkscape:pageopacity="0"
   inkscape:pageshadow="2"
   inkscape:window-width="1366"
   inkscape:window-height="705"
   id="namedview976"
   showgrid="false"
   inkscape:zoom="64"
   inkscape:cx="15.887371"
   inkscape:cy="13.833484"
   inkscape:window-x="-8"
   inkscape:window-y="-8"
   inkscape:window-maximized="1"
   inkscape:current-layer="Capa_1" />
<g
   id="g943">
	<path
   d="M25.302,0H9.698c-1.3,0-2.364,1.063-2.364,2.364v30.271C7.334,33.936,8.398,35,9.698,35h15.604   c1.3,0,2.364-1.062,2.364-2.364V2.364C27.666,1.063,26.602,0,25.302,0z M15.004,1.704h4.992c0.158,0,0.286,0.128,0.286,0.287   c0,0.158-0.128,0.286-0.286,0.286h-4.992c-0.158,0-0.286-0.128-0.286-0.286C14.718,1.832,14.846,1.704,15.004,1.704z M17.5,33.818   c-0.653,0-1.182-0.529-1.182-1.183s0.529-1.182,1.182-1.182s1.182,0.528,1.182,1.182S18.153,33.818,17.5,33.818z M26.021,30.625   H8.979V3.749h17.042V30.625z"
   id="path941" />
</g>
<g
   id="g945">
</g>
<g
   id="g947">
</g>
<g
   id="g949">
</g>
<g
   id="g951">
</g>
<g
   id="g953">
</g>
<g
   id="g955">
</g>
<g
   id="g957">
</g>
<g
   id="g959">
</g>
<g
   id="g961">
</g>
<g
   id="g963">
</g>
<g
   id="g965">
</g>
<g
   id="g967">
</g>
<g
   id="g969">
</g>
<g
   id="g971">
</g>
<g
   id="g973">
</g>
<g
   id="g999"
   transform="matrix(0.48874471,0,0,0.48874471,2.0303089,1.114674)"><path
     inkscape:connector-curvature="0"
     id="path31"
     d="m 26,16 h 12 c 0.553,0 1,0.447 1,1 v 30 c 0,0.553 -0.447,1 -1,1 H 26 c -0.553,0 -1,-0.447 -1,-1 V 17 c 0,-0.553 0.447,-1 1,-1 z M 37,33.016 H 27 V 43.017 H 37 Z M 27,18 V 31.016 H 37 V 18 Z M 37,46 V 45.017 H 27 V 46 Z" /><path
     style="stroke-width:0.86263347"
     inkscape:connector-curvature="0"
     id="path35"
     d="m 32.016,40.555313 c 0.553,0 1,-0.332629 1,-0.744136 v -3.720683 c 0,-0.411507 -0.447,-0.744136 -1,-0.744136 -0.553,0 -1,0.332629 -1,0.744136 v 3.720683 c 0,0.410763 0.447,0.744136 1,0.744136 z" /><path
     inkscape:connector-curvature="0"
     id="path37"
     d="m 32.016,26.943373 c 1.379,0 2.5,-1.121 2.5,-2.5 0,-1.379 -1.121,-2.5 -2.5,-2.5 -1.379,0 -2.5,1.121 -2.5,2.5 0,1.379 1.121,2.5 2.5,2.5 z m 0,-3 c 0.275,0 0.5,0.225 0.5,0.5 0,0.275 -0.225,0.5 -0.5,0.5 -0.275,0 -0.5,-0.225 -0.5,-0.5 0,-0.275 0.225,-0.5 0.5,-0.5 z" /></g><path
   style="opacity:0.98999999;fill:#999999;fill-opacity:0.98469388;stroke:none;stroke-width:0.0390625;stroke-linecap:round;stroke-miterlimit:4;stroke-dasharray:none;stroke-opacity:1"
   d="m 16.046206,23.596057 c 0.450635,-5.48e-4 1.188037,-5.48e-4 1.638672,0 0.450635,5.47e-4 0.08193,9.95e-4 -0.819336,9.95e-4 -0.901269,0 -1.26997,-4.48e-4 -0.819336,-9.95e-4 z"
   id="path82"
   inkscape:connector-curvature="0" /><path
   style="opacity:0.98999999;fill:#999999;fill-opacity:0.98469388;stroke:none;stroke-width:0.0390625;stroke-linecap:round;stroke-miterlimit:4;stroke-dasharray:none;stroke-opacity:1"
   d="m 15.228823,23.589221 c 0,-0.0052 0.07077,-0.0059 0.613512,-0.0059 0.379685,0 0.612652,0.0014 0.611254,0.0037 -0.0012,0.002 0.0035,0.0044 0.01051,0.0052 0.007,8.69e-4 -0.268041,0.0019 -0.611254,0.0022 -0.552361,5.53e-4 -0.624024,-4.8e-5 -0.624024,-0.0052 z"
   id="path84"
   inkscape:connector-curvature="0" /><path
   style="opacity:0.98999999;fill:#999999;fill-opacity:0.98469388;stroke:none;stroke-width:0.0390625;stroke-linecap:round;stroke-miterlimit:4;stroke-dasharray:none;stroke-opacity:1"
   d="m 15.554326,23.592151 c 0.16721,-5.64e-4 0.439671,-5.64e-4 0.605469,0 0.165798,5.64e-4 0.02899,10e-4 -0.304018,10e-4 -0.333008,0 -0.468661,-4.62e-4 -0.301451,-10e-4 z"
   id="path86"
   inkscape:connector-curvature="0" /><path
   style="opacity:0.98999999;fill:#999999;fill-opacity:0.98469388;stroke:none;stroke-width:0.0390625;stroke-linecap:round;stroke-miterlimit:4;stroke-dasharray:none;stroke-opacity:1"
   d="m 15.32576,23.592155 c 0.0415,-6.34e-4 0.108296,-6.33e-4 0.148438,2e-6 0.04014,6.34e-4 0.0062,0.0012 -0.07545,0.0012 -0.08164,-1e-6 -0.114484,-5.2e-4 -0.07298,-0.0012 z"
   id="path88"
   inkscape:connector-curvature="0" /><path
   style="opacity:0.98999999;fill:#999999;fill-opacity:0.98469388;stroke:none;stroke-width:0.0390625;stroke-linecap:round;stroke-miterlimit:4;stroke-dasharray:none;stroke-opacity:1"
   d="m 15.288394,23.592168 c 0.02095,-7.02e-4 0.05522,-7.02e-4 0.07617,0 0.02095,7.02e-4 0.0038,0.0013 -0.03809,0.0013 -0.0419,0 -0.05903,-5.75e-4 -0.03809,-0.0013 z"
   id="path90"
   inkscape:connector-curvature="0" /><path
   style="opacity:0.98999999;fill:#ffffff;fill-opacity:0.98469388;stroke:none;stroke-width:0.3125;stroke-linecap:round;stroke-miterlimit:4;stroke-dasharray:none;stroke-opacity:1"
   d="m 8.97586,21.193995 v -9.40625 h 2.625 2.625 l 6.88e-4,6.179687 c 6.59e-4,5.948052 0.0029,6.184465 0.05857,6.307144 0.069,0.151913 0.186605,0.251232 0.349414,0.295072 0.07881,0.02122 1.134695,0.02921 3.113108,0.02354 l 2.993841,-0.0086 0.118159,-0.07346 c 0.06499,-0.0404 0.145847,-0.127734 0.179688,-0.194067 0.06059,-0.118773 0.06153,-0.214929 0.06153,-6.324976 v -6.20437 h 2.453125 2.453125 v 9.40625 9.40625 H 17.491485 8.97586 Z"
   id="path921"
   inkscape:connector-curvature="0" /><path
   style="opacity:0.98999999;fill:#999999;fill-opacity:0.98469388;stroke:none;stroke-width:0.3125;stroke-linecap:round;stroke-miterlimit:4;stroke-dasharray:none;stroke-opacity:1"
   d="m 15.22586,19.693995 v -2.4375 h 2.4375 2.4375 v 2.4375 2.4375 h -2.4375 -2.4375 z m 2.706797,1.190195 c 0.236074,-0.107205 0.230703,-0.07877 0.230703,-1.221445 0,-1.142677 0.0054,-1.11424 -0.230703,-1.221445 -0.172585,-0.07837 -0.351388,-0.07476 -0.520488,0.01051 -0.243286,0.122683 -0.248712,0.149098 -0.248712,1.210938 0,1.06184 0.0054,1.088255 0.248712,1.210937 0.1691,0.08527 0.347903,0.08888 0.520488,0.01051 z"
   id="path923"
   inkscape:connector-curvature="0" /><path
   style="opacity:0.98999999;fill:#999999;fill-opacity:0.98469388;stroke:none;stroke-width:0.3125;stroke-linecap:round;stroke-miterlimit:4;stroke-dasharray:none;stroke-opacity:1"
   d="m 15.225585,19.693995 v -2.4375 h 2.4375 2.4375 v 2.4375 2.4375 h -2.4375 -2.4375 z m 2.60814,1.215801 c 0.07705,-0.0194 0.174308,-0.07437 0.224776,-0.127052 l 0.08896,-0.09285 v -1.027146 -1.027146 l -0.08965,-0.09358 c -0.238692,-0.249141 -0.770168,-0.158984 -0.855299,0.145088 -0.01309,0.04675 -0.0238,0.499853 -0.0238,1.006884 0,0.976572 0.0055,1.017528 0.151873,1.125 0.0651,0.04781 0.252718,0.118262 0.326476,0.122598 0.02247,0.0013 0.101967,-0.01299 0.176666,-0.0318 z"
   id="path925"
   inkscape:connector-curvature="0" /><path
   style="opacity:0.98999999;fill:#999999;fill-opacity:0.98469388;stroke:none;stroke-width:0.3125;stroke-linecap:round;stroke-miterlimit:4;stroke-dasharray:none;stroke-opacity:1"
   d="M 15.225585,13.08462 V 9.912745 h 2.4375 2.4375 v 3.171875 3.171875 h -2.4375 -2.4375 z m 2.972713,1.086098 c 0.619199,-0.305141 0.877874,-1.011522 0.593193,-1.619873 -0.175616,-0.375282 -0.496727,-0.621356 -0.920575,-0.705456 -0.600341,-0.11912 -1.249718,0.322864 -1.394119,0.948874 -0.118631,0.514291 0.144386,1.095189 0.608163,1.343187 0.223965,0.119763 0.3631,0.150102 0.644588,0.140556 0.228142,-0.0077 0.300208,-0.02423 0.46875,-0.107288 z"
   id="path927"
   inkscape:connector-curvature="0" /><path
   style="opacity:0.98999999;fill:#999999;fill-opacity:0.98469388;stroke:none;stroke-width:0.3125;stroke-linecap:round;stroke-miterlimit:4;stroke-dasharray:none;stroke-opacity:1"
   d="m 15.225585,13.100245 v -3.1875 h 2.4375 2.4375 v 3.1875 3.1875 h -2.4375 -2.4375 z m 2.693774,1.152363 c 0.955524,-0.202741 1.301938,-1.402918 0.595626,-2.06359 -0.2524,-0.236091 -0.579045,-0.365936 -0.88315,-0.351063 -0.21825,0.01067 -0.228274,0.01326 -0.453125,0.116701 -0.199572,0.09182 -0.413668,0.277288 -0.531347,0.460311 -0.443811,0.690246 -0.05722,1.633141 0.750097,1.829465 0.202965,0.04936 0.319225,0.05118 0.521899,0.0082 z"
   id="path929"
   inkscape:connector-curvature="0" /><path
   style="opacity:0.98999999;fill:#999999;fill-opacity:0.98469388;stroke:none;stroke-width:0.3125;stroke-linecap:round;stroke-miterlimit:4;stroke-dasharray:none;stroke-opacity:1"
   d="m 17.509103,13.205406 c -0.163883,-0.208344 0.04121,-0.462493 0.275464,-0.341355 0.144786,0.07487 0.169456,0.206971 0.06375,0.341355 -0.08957,0.113871 -0.249643,0.113871 -0.339214,0 z"
   id="path931"
   inkscape:connector-curvature="0" /><path
   style="opacity:0.98999999;fill:#999999;fill-opacity:0.98469388;stroke:none;stroke-width:0.3125;stroke-linecap:round;stroke-miterlimit:4;stroke-dasharray:none;stroke-opacity:1"
   d="m 17.587386,13.271816 c -0.05023,-0.02116 -0.09613,-0.06491 -0.101996,-0.09721 -0.039,-0.214665 -0.03655,-0.229566 0.04722,-0.28679 0.09298,-0.06352 0.196373,-0.05343 0.31458,0.0307 0.05906,0.04204 0.06989,0.07037 0.05375,0.140625 -0.01112,0.04839 -0.02482,0.109076 -0.03045,0.134857 -0.0056,0.02578 -0.02295,0.04737 -0.0385,0.04798 -0.01555,6.09e-4 -0.0564,0.01623 -0.09077,0.03471 -0.04558,0.02451 -0.08722,0.02319 -0.153824,-0.0049 z"
   id="path933"
   inkscape:connector-curvature="0" /><path
   style="opacity:0.98999999;fill:#999999;fill-opacity:0.98469388;stroke:none;stroke-width:0.3125;stroke-linecap:round;stroke-miterlimit:4;stroke-dasharray:none;stroke-opacity:1"
   d="m 17.580081,13.268068 c -0.08099,-0.03334 -0.102499,-0.06351 -0.120264,-0.168668 -0.01684,-0.09969 -0.0095,-0.141471 0.03316,-0.188607 0.07069,-0.07811 0.254097,-0.07867 0.355024,-0.0011 0.06865,0.05277 0.07292,0.07008 0.04687,0.189682 -0.03657,0.167899 -0.158284,0.23312 -0.314794,0.168681 z"
   id="path935"
   inkscape:connector-curvature="0" /><path
   style="opacity:0.98999999;fill:#808080;fill-opacity:0.98469388;stroke:none;stroke-width:0.078125;stroke-linecap:round;stroke-miterlimit:4;stroke-dasharray:none;stroke-opacity:1"
   d="m 15.843239,23.584639 -0.611328,-0.002 v -0.230421 -0.230421 h 2.441406 2.441406 v 0.234375 0.234375 l -1.830078,-0.0019 c -1.006543,-0.001 -2.105176,-0.0028 -2.441406,-0.004 z"
   id="path1048"
   inkscape:connector-curvature="0" /><path
   style="opacity:0.98999999;fill:#808080;fill-opacity:0.98469388;stroke:none;stroke-width:0.078125;stroke-linecap:round;stroke-miterlimit:4;stroke-dasharray:none;stroke-opacity:1"
   d="m 15.503395,23.584537 -0.271484,-0.0021 V 23.35214 23.121797 l 2.441406,-0.002 2.441406,-0.002 v 0.236504 0.236504 l -2.169922,-0.0021 c -1.193457,-0.0012 -2.29209,-0.0031 -2.441406,-0.0042 z"
   id="path1050"
   inkscape:connector-curvature="0" /><path
   style="opacity:0.98999999;fill:#808080;fill-opacity:0.98469388;stroke:none;stroke-width:0.078125;stroke-linecap:round;stroke-miterlimit:4;stroke-dasharray:none;stroke-opacity:1"
   d="m 15.366676,23.584454 -0.134765,-0.0021 v -0.230285 -0.230284 l 1.451172,-3e-6 c 0.798144,-2e-6 1.896777,-0.0023 2.441406,-0.0052 l 0.990234,-0.0052 v 0.23976 0.239761 l -2.30664,-0.0021 c -1.268653,-0.0012 -2.367286,-0.0031 -2.441407,-0.0043 z"
   id="path1052"
   inkscape:connector-curvature="0" /><path
   style="opacity:0.98999999;fill:#808080;fill-opacity:0.98469388;stroke:none;stroke-width:0.0390625;stroke-linecap:round;stroke-miterlimit:4;stroke-dasharray:none;stroke-opacity:1"
   d="m 16.457939,23.591521 c -0.0016,-0.0026 3.508245,-0.0025 3.612678,1.78e-4 0.02363,5.95e-4 -0.779145,0.0015 -1.78395,0.0019 -1.004804,4.59e-4 -1.827732,-4.83e-4 -1.828728,-0.0021 z"
   id="path1056"
   inkscape:connector-curvature="0" /><path
   style="opacity:0.98999999;fill:#808080;fill-opacity:0.98469388;stroke:none;stroke-width:0.0390625;stroke-linecap:round;stroke-miterlimit:4;stroke-dasharray:none;stroke-opacity:1"
   d="m 15.229528,23.596346 c 0.0011,-0.0011 0.275821,-0.0028 0.610478,-0.0037 0.334656,-9.33e-4 0.60942,-0.0026 0.610585,-0.0038 0.0012,-0.0012 0.0041,-4.88e-4 0.0065,0.0015 0.0027,0.0022 0.08105,0.0021 0.203485,-3.38e-4 0.125108,-0.0025 0.40166,-0.0029 0.74404,-9.81e-4 0.299707,0.0016 1.005469,0.0027 1.568359,0.0024 0.562891,-3.16e-4 1.049805,8.33e-4 1.082032,0.0026 0.03223,0.0017 -1.040772,0.0034 -2.384441,0.0038 -1.343668,3.47e-4 -2.442129,-2.74e-4 -2.441023,-0.0014 z"
   id="path1058"
   inkscape:connector-curvature="0" /><path
   style="opacity:0.98999999;fill:#808080;fill-opacity:0.98469388;stroke:none;stroke-width:0.0390625;stroke-linecap:round;stroke-miterlimit:4;stroke-dasharray:none;stroke-opacity:1"
   d="m 15.265929,23.594452 0.03906,-0.0024 -0.03711,-0.0015 -0.03711,-0.0015 0.04687,-0.0023 0.04687,-0.0023 -0.0459,-7.85e-4 -0.0459,-7.86e-4 V 23.35289 23.123049 l 2.104492,-0.0036 c 1.157471,-0.002 2.255664,-0.0036 2.44043,-0.0036 h 0.335937 v 0.240235 0.240234 l -2.443359,2.21e-4 c -1.343848,1.22e-4 -2.425781,-8.55e-4 -2.404297,-0.0022 z m 4.795668,-0.0029 c -0.02859,-6.69e-4 -0.0743,-6.67e-4 -0.101562,4e-6 -0.02727,6.7e-4 -0.0039,0.0012 0.05199,0.0012 0.05586,-2e-6 0.07817,-5.51e-4 0.04957,-0.0012 z m -3.366695,-0.0039 c -0.04336,-6.28e-4 -0.115433,-6.29e-4 -0.160157,-10e-7 -0.04472,6.27e-4 -0.0092,0.0011 0.07884,0.0011 0.08809,1e-6 0.124679,-5.12e-4 0.08132,-0.0011 z"
   id="path1060"
   inkscape:connector-curvature="0" /><path
   style="opacity:0.98999999;fill:#999999;fill-opacity:0.98469388;stroke:none;stroke-width:0.0390625;stroke-linecap:round;stroke-miterlimit:4;stroke-dasharray:none;stroke-opacity:1"
   d="m 17.646932,13.289318 c -0.04528,-0.0084 -0.104243,-0.03509 -0.131191,-0.05944 -0.02261,-0.02043 -0.03259,-0.03984 -0.04884,-0.09497 -0.01297,-0.04401 -0.0144,-0.05339 -0.01456,-0.09567 -2.17e-4,-0.05731 0.0063,-0.08241 0.02957,-0.113017 0.0227,-0.02992 0.07178,-0.06585 0.108326,-0.0793 0.02579,-0.0095 0.03481,-0.0108 0.07428,-0.01075 0.0387,4.6e-5 0.04928,0.0015 0.07634,0.0108 0.04325,0.01478 0.08452,0.03989 0.119946,0.07298 0.04374,0.04085 0.04623,0.046 0.04877,0.101158 0.0024,0.05215 -0.0014,0.07428 -0.01938,0.113842 -0.0064,0.01396 -0.015,0.03754 -0.0192,0.0524 -0.0094,0.03338 -0.01939,0.04783 -0.03611,0.05245 -0.0071,0.002 -0.02199,0.0098 -0.0331,0.01746 -0.02482,0.01707 -0.05564,0.02893 -0.08322,0.032 -0.01146,0.0013 -0.02611,0.003 -0.03256,0.0037 -0.0064,7.68e-4 -0.02402,-8.8e-4 -0.03906,-0.0037 z"
   id="path1108"
   inkscape:connector-curvature="0" /><path
   style="opacity:0.98999999;fill:#999999;fill-opacity:0.98469388;stroke:none;stroke-width:0.0390625;stroke-linecap:round;stroke-miterlimit:4;stroke-dasharray:none;stroke-opacity:1"
   d="m 17.869093,13.202327 c 0.0011,-0.0038 0.0039,-0.01427 0.0063,-0.02336 0.0023,-0.0091 0.0094,-0.02747 0.01577,-0.04085 0.01685,-0.03563 0.02485,-0.07609 0.02214,-0.112041 -0.0017,-0.02293 -0.0013,-0.0271 0.0017,-0.01809 0.0022,0.0064 0.0041,0.03018 0.0042,0.05273 2.75e-4,0.04819 -0.01066,0.08855 -0.03412,0.125977 -0.01433,0.02285 -0.0195,0.02792 -0.01593,0.01563 z"
   id="path1112"
   inkscape:connector-curvature="0" /><path
   style="opacity:0.98999999;fill:#999999;fill-opacity:0.98469388;stroke:none;stroke-width:0.0390625;stroke-linecap:round;stroke-miterlimit:4;stroke-dasharray:none;stroke-opacity:1"
   d="m 17.651867,13.291198 c -0.04568,-0.008 -0.11022,-0.03755 -0.137963,-0.06312 -0.0203,-0.01871 -0.03329,-0.04372 -0.04635,-0.08923 -0.01511,-0.05265 -0.01897,-0.08067 -0.01622,-0.117958 0.0046,-0.06306 0.02145,-0.09558 0.06903,-0.133486 0.06222,-0.04957 0.129489,-0.06467 0.20366,-0.0457 0.05224,0.01336 0.09496,0.03844 0.142647,0.08374 0.03077,0.02922 0.04003,0.04286 0.04003,0.05891 0,0.0055 0.0013,0.01 0.0029,0.01 0.0016,-3e-6 0.0026,0.0101 0.0021,0.02246 -5.95e-4,0.01669 5.8e-5,0.01996 0.0025,0.0127 0.0018,-0.0054 0.0036,-0.0076 0.004,-0.0049 0.0019,0.01393 5.69e-4,0.06635 -0.0018,0.07227 -0.0015,0.0038 -0.0018,0.0094 -5.86e-4,0.01257 0.0012,0.0032 4e-4,0.0068 -0.0018,0.0082 -0.0022,0.0014 -0.0031,0.0049 -0.0019,0.0079 0.0012,0.003 2.07e-4,0.0055 -0.0021,0.0055 -0.0023,0 -0.0033,0.0023 -0.0023,0.005 0.0011,0.0028 -4.49e-4,0.0083 -0.0034,0.01229 -0.0029,0.004 -0.0044,0.0087 -0.0032,0.01058 0.0011,0.0018 9.4e-5,0.0033 -0.0023,0.0033 -0.0024,0 -0.0033,0.0018 -0.002,0.0039 0.0013,0.0021 2.6e-4,0.0039 -0.0024,0.0039 -0.0026,0 -0.0037,0.0011 -0.0024,0.0024 0.0013,0.0013 -9.8e-4,0.006 -0.0051,0.01036 -0.0041,0.0044 -0.0065,0.0095 -0.0054,0.0113 0.0011,0.0018 1.87e-4,0.0033 -0.0021,0.0033 -0.0077,0 -0.0097,0.0019 -0.01797,0.01758 -0.0084,0.01585 -0.0087,0.01607 -0.08382,0.05589 -0.03405,0.01805 -0.08859,0.02684 -0.125925,0.02028 z"
   id="path1114"
   inkscape:connector-curvature="0" /><path
   style="opacity:0.98999999;fill:#999999;fill-opacity:0.98469388;stroke:none;stroke-width:0.0390625;stroke-linecap:round;stroke-miterlimit:4;stroke-dasharray:none;stroke-opacity:1"
   d="m 17.649179,13.291037 c -0.04755,-0.0098 -0.108523,-0.0383 -0.135705,-0.06335 -0.02236,-0.02061 -0.03304,-0.04184 -0.04893,-0.09726 -0.01151,-0.04016 -0.01268,-0.04907 -0.01245,-0.09509 2.02e-4,-0.04156 0.0017,-0.05448 0.0083,-0.07117 0.02233,-0.05684 0.08826,-0.109824 0.1569,-0.126071 0.0285,-0.0067 0.09318,-0.003 0.121569,0.007 0.05016,0.01768 0.08653,0.04056 0.128217,0.08065 0.03437,0.03305 0.03927,0.04167 0.04233,0.07447 0.0013,0.01384 0.0039,0.02424 0.0057,0.0231 0.0041,-0.0025 0.0043,-6e-6 0.0036,0.03941 -5.68e-4,0.03053 -0.0022,0.05272 -0.0041,0.05664 -5.25e-4,0.0011 -0.0014,0.0037 -0.0019,0.0059 -4.99e-4,0.0021 -0.0014,0.0052 -0.002,0.0068 -5.96e-4,0.0016 -0.0014,0.0042 -0.0017,0.0059 -0.0031,0.01367 -0.01142,0.03223 -0.01453,0.03223 -0.0021,0 -0.0029,0.0016 -0.0017,0.0035 0.0012,0.0019 -4.77e-4,0.0056 -0.0037,0.0083 -0.0032,0.0027 -0.0058,0.0071 -0.0058,0.0098 0,0.0027 -0.0026,0.0059 -0.0057,0.0071 -0.0031,0.0012 -0.01019,0.0093 -0.01569,0.01802 -0.0064,0.0102 -0.01657,0.01907 -0.02849,0.02493 -0.01017,0.005 -0.03035,0.0157 -0.04484,0.02377 -0.01449,0.0081 -0.0352,0.017 -0.04602,0.01986 -0.02725,0.0072 -0.07268,0.01 -0.09335,0.0057 z"
   id="path1116"
   inkscape:connector-curvature="0" /><path
   style="opacity:0.98999999;fill:#999999;fill-opacity:0.98469388;stroke:none;stroke-width:0.0390625;stroke-linecap:round;stroke-miterlimit:4;stroke-dasharray:none;stroke-opacity:1"
   d="m 17.857724,12.914785 c -0.04443,-0.03926 -0.08678,-0.0629 -0.13462,-0.07514 -0.02992,-0.0077 -0.08809,-0.0085 -0.113178,-0.0017 -0.02775,0.0076 -0.06376,0.0267 -0.08956,0.04758 -0.0131,0.0106 -0.02382,0.01752 -0.02382,0.01537 0,-0.0069 0.04797,-0.04318 0.07518,-0.05687 0.08873,-0.04464 0.199365,-0.02813 0.27127,0.04047 0.02067,0.01973 0.04232,0.04654 0.03969,0.04917 -9.17e-4,9.17e-4 -0.01215,-0.0076 -0.02496,-0.01891 z"
   id="path1118"
   inkscape:connector-curvature="0" /><path
   style="opacity:0.98999999;fill:#999999;fill-opacity:0.98469388;stroke:none;stroke-width:0.0390625;stroke-linecap:round;stroke-miterlimit:4;stroke-dasharray:none;stroke-opacity:1"
   d="m 17.652792,13.292647 c -0.02202,-0.0042 -0.06227,-0.01845 -0.08929,-0.03169 -0.03836,-0.0188 -0.06689,-0.04533 -0.07989,-0.07428 -0.02632,-0.05865 -0.03887,-0.137719 -0.03044,-0.191708 0.005,-0.03191 0.01435,-0.05315 0.03423,-0.07767 0.0073,-0.0091 0.01344,-0.01785 0.01353,-0.01953 2.69e-4,-0.0047 0.0078,-0.01282 0.01194,-0.01282 0.002,0 0.0024,0.0022 8.48e-4,0.0049 -0.0016,0.0028 -0.0013,0.0035 7.46e-4,0.0016 0.002,-0.0018 0.0037,-0.0044 0.0039,-0.0059 9.57e-4,-0.0074 0.0067,-0.01599 0.0096,-0.01424 0.0018,0.0011 0.006,-0.002 0.0094,-0.0069 0.0034,-0.0049 0.0075,-0.0087 0.0091,-0.0084 0.0051,8.07e-4 0.02043,-0.0075 0.02043,-0.01107 0,-0.0019 0.0018,-0.0024 0.0039,-0.0011 0.0021,0.0013 0.0039,4.49e-4 0.0039,-0.002 0,-0.0024 0.0018,-0.0033 0.0039,-0.002 0.0021,0.0013 0.0039,9.27e-4 0.0039,-8.91e-4 0,-0.0018 0.0031,-0.0035 0.0068,-0.0038 0.0038,-2.94e-4 0.01211,-0.0027 0.01855,-0.0054 0.0064,-0.0027 0.01405,-0.0044 0.01689,-0.004 0.0028,4.75e-4 0.0072,-6.69e-4 0.0098,-0.0025 0.0056,-0.0042 0.07994,-0.0035 0.08972,8.21e-4 0.0039,0.0017 0.0081,0.002 0.0094,6.74e-4 0.0013,-0.0013 0.0048,-4.44e-4 0.0076,0.0019 0.0029,0.0024 0.0052,0.0034 0.0052,0.0022 0,-0.0012 0.0047,2.43e-4 0.01046,0.0032 0.0058,0.003 0.01191,0.0045 0.01367,0.0034 0.0018,-0.0011 0.0032,-1.8e-5 0.0032,0.0024 0,0.0024 0.0018,0.0033 0.0039,0.002 0.0021,-0.0013 0.0039,-4.49e-4 0.0039,0.002 0,0.0024 0.0018,0.0033 0.0039,0.002 0.0021,-0.0013 0.0039,-2.59e-4 0.0039,0.0024 0,0.0026 0.0011,0.0037 0.0024,0.0024 0.0013,-0.0013 0.006,9.8e-4 0.01036,0.0051 0.0044,0.0041 0.0093,0.0066 0.01089,0.0056 0.0016,-9.88e-4 0.0039,8.31e-4 0.0051,0.004 0.0012,0.0032 0.0039,0.0058 0.0058,0.0058 0.0029,0 0.02642,0.02275 0.05037,0.04881 0.0096,0.01041 0.0048,0.01497 -0.0058,0.0056 -0.0059,-0.0052 -8.97e-4,0.0011 0.01111,0.01401 0.02158,0.02321 0.03291,0.04608 0.03158,0.06372 -3.75e-4,0.005 0.0014,0.01291 0.0039,0.01758 0.0028,0.0052 0.0044,0.02444 0.0041,0.05002 -8.07e-4,0.0628 -0.01922,0.10995 -0.05865,0.150154 -0.02048,0.02088 -0.07329,0.05173 -0.109379,0.06389 -0.02226,0.0075 -0.07987,0.01309 -0.09853,0.0096 z"
   id="path1120"
   inkscape:connector-curvature="0" /><path
   style="opacity:0.98999999;fill:#999999;fill-opacity:0.98469388;stroke:none;stroke-width:0.0390625;stroke-linecap:round;stroke-miterlimit:4;stroke-dasharray:none;stroke-opacity:1"
   d="m 17.637167,13.289413 c -0.02619,-0.0067 -0.07399,-0.02629 -0.09325,-0.03813 -0.02337,-0.01437 -0.04752,-0.03874 -0.05708,-0.05761 -0.01984,-0.03916 -0.03717,-0.11206 -0.03717,-0.156379 0,-0.05126 0.01071,-0.08602 0.03665,-0.118983 0.0067,-0.0085 0.01218,-0.01677 0.01218,-0.01836 0,-0.004 0.02943,-0.03063 0.03382,-0.03063 0.0019,0 0.0045,-0.0026 0.0058,-0.0059 0.0012,-0.0032 0.0047,-0.0059 0.0077,-0.0059 0.003,0 0.0054,-0.0021 0.0054,-0.0046 0,-0.0025 10e-4,-0.0035 0.0023,-0.0023 0.0012,0.0012 0.0085,-0.002 0.01617,-0.0072 0.0076,-0.0052 0.01706,-0.0094 0.02091,-0.0094 0.0039,0 0.01196,-0.002 0.01801,-0.0045 0.006,-0.0025 0.01451,-0.0053 0.01881,-0.0063 0.01574,-0.0036 0.113281,-0.0011 0.113281,0.0029 0,3.43e-4 0.0034,0.0013 0.0076,0.002 0.01492,0.0028 0.04121,0.01431 0.04121,0.01806 0,0.0021 0.0016,0.0028 0.0036,0.0016 0.002,-0.0012 0.0062,4.34e-4 0.0095,0.0037 0.0032,0.0032 0.0076,0.0059 0.0097,0.0059 0.0021,0 0.0048,0.0026 0.006,0.0059 0.0012,0.0032 0.0038,0.0059 0.0057,0.0059 0.0058,0 0.05538,0.05129 0.05538,0.05731 0,0.0034 -0.002,0.0045 -0.0049,0.0029 -0.0027,-0.0015 0.0015,0.0041 0.0093,0.01246 0.01812,0.0194 0.02758,0.03821 0.02758,0.05485 0,0.0072 0.0012,0.01311 0.0027,0.01311 0.0035,0 0.0042,0.0093 0.0046,0.05771 4.3e-4,0.06182 -0.01603,0.106843 -0.05401,0.147734 -0.02045,0.02202 -0.07565,0.05501 -0.113233,0.06767 -0.03097,0.01043 -0.0864,0.01352 -0.114231,0.0064 z"
   id="path1122"
   inkscape:connector-curvature="0" /><path
   style="opacity:0.98999999;fill:#999999;fill-opacity:0.98469388;stroke:none;stroke-width:0.0390625;stroke-linecap:round;stroke-miterlimit:4;stroke-dasharray:none;stroke-opacity:1"
   d="m 17.634031,13.289281 c -0.06359,-0.01794 -0.118938,-0.05032 -0.139545,-0.08163 -0.03592,-0.05458 -0.05512,-0.169698 -0.03852,-0.231068 0.0035,-0.01281 0.0064,-0.0254 0.0065,-0.028 1.18e-4,-0.0026 0.0027,-0.0057 0.0057,-0.0068 0.003,-0.0012 0.0044,-0.0039 0.003,-0.006 -0.0013,-0.0022 -7.4e-4,-0.0039 0.0013,-0.0039 0.0021,0 0.01009,-0.0095 0.01782,-0.02119 0.02595,-0.03909 0.07658,-0.0729 0.129114,-0.08619 0.02986,-0.0076 0.08763,-0.0076 0.117499,0 0.03213,0.0081 0.07464,0.03014 0.09846,0.05097 0.02138,0.0187 0.04419,0.04558 0.04541,0.05351 4.11e-4,0.0027 0.0056,0.01189 0.01147,0.02048 0.03607,0.05255 0.03795,0.150288 0.0042,0.219149 -0.01249,0.0255 -0.04866,0.07187 -0.05606,0.07187 -0.0017,0 -0.01697,0.0079 -0.03387,0.01763 -0.0169,0.0097 -0.04214,0.0212 -0.05609,0.02556 -0.03397,0.01062 -0.08936,0.01333 -0.116441,0.0057 z"
   id="path1124"
   inkscape:connector-curvature="0" /><path
   style="opacity:0.98999999;fill:#999999;fill-opacity:0.98469388;stroke:none;stroke-width:0.0390625;stroke-linecap:round;stroke-miterlimit:4;stroke-dasharray:none;stroke-opacity:1"
   d="m 17.621542,13.297025 c -0.13209,-0.0322 -0.212469,-0.167129 -0.177815,-0.298496 0.003,-0.01135 0.006,-0.02119 0.0067,-0.02187 6.73e-4,-6.73e-4 0.0012,0.02544 0.0013,0.05802 3.7e-5,0.05015 0.0015,0.06434 0.0093,0.09245 0.01349,0.04865 0.03259,0.08659 0.05223,0.103723 0.01992,0.01738 0.08564,0.0498 0.118007,0.0582 0.04899,0.01272 0.10152,0.0058 0.154453,-0.02028 0.04639,-0.02288 0.0475,-0.02324 0.0332,-0.01094 -0.01626,0.01399 -0.0563,0.03245 -0.08517,0.03926 -0.02969,0.007 -0.08323,0.007 -0.112094,-6.5e-5 z"
   id="path1126"
   inkscape:connector-curvature="0" /><path
   style="opacity:0.98999999;fill:#999999;fill-opacity:0.98469388;stroke:none;stroke-width:0.0390625;stroke-linecap:round;stroke-miterlimit:4;stroke-dasharray:none;stroke-opacity:1"
   d="m 17.660604,13.302398 c 0,-0.0029 -0.0054,-0.0037 -0.01562,-0.0023 -0.0086,0.0012 -0.01668,3.86e-4 -0.01797,-0.0017 -0.0013,-0.0021 -0.0046,-0.0029 -0.0074,-0.0018 -0.0028,0.0011 -0.0063,7.53e-4 -0.0077,-7.1e-4 -0.0015,-0.0015 -0.0043,-0.0029 -0.0062,-0.0031 -0.002,-2.69e-4 -0.0045,-9.28e-4 -0.0055,-0.0015 -0.0011,-5.37e-4 -0.0033,-0.0013 -0.0049,-0.0016 -0.0016,-3.58e-4 -0.0086,-0.0037 -0.01563,-0.0074 -0.007,-0.0037 -0.0127,-0.0058 -0.0127,-0.0046 0,0.0012 -0.0038,-0.0013 -0.0084,-0.0056 -0.0046,-0.0043 -0.0099,-0.0069 -0.01172,-0.0058 -0.0018,0.0011 -0.0033,1.32e-4 -0.0033,-0.0022 0,-0.0023 -0.0025,-0.0052 -0.0055,-0.0064 -0.0075,-0.0029 -0.05618,-0.05188 -0.05386,-0.0542 0.001,-10e-4 -10e-4,-0.003 -0.0045,-0.0043 -0.0035,-0.0014 -0.0054,-0.004 -0.0042,-0.006 0.0012,-0.0019 -5.59e-4,-0.0046 -0.0039,-0.0059 -0.0033,-0.0013 -0.0051,-0.0039 -0.0039,-0.0058 0.0012,-0.0019 1.96e-4,-0.0035 -0.0022,-0.0035 -0.0024,0 -0.0033,-0.0018 -0.002,-0.0039 0.0013,-0.0021 4.49e-4,-0.0039 -0.002,-0.0039 -0.0024,0 -0.0033,-0.0018 -0.002,-0.0039 0.0013,-0.0021 4.49e-4,-0.0039 -0.002,-0.0039 -0.0024,0 -0.0033,-0.0018 -0.002,-0.0039 0.0013,-0.0021 6.08e-4,-0.0039 -0.0016,-0.0039 -0.0022,0 -0.003,-0.0026 -0.0018,-0.0059 0.0012,-0.0032 1.99e-4,-0.0059 -0.0023,-0.0059 -0.0025,0 -0.0035,-0.0016 -0.0023,-0.0036 0.0012,-0.002 5.37e-4,-0.0047 -0.0016,-0.006 -0.0021,-0.0013 -0.0029,-0.0048 -0.0018,-0.0077 0.0011,-0.0029 2.48e-4,-0.0065 -0.002,-0.0078 -0.0022,-0.0014 -0.003,-0.005 -0.0019,-0.008 0.0012,-0.0031 8.65e-4,-0.0076 -6.8e-4,-0.01009 -0.0036,-0.0058 -0.0035,-0.06978 1.2e-4,-0.07865 0.0015,-0.0037 0.0016,-0.0084 3.26e-4,-0.01047 -0.0013,-0.0021 -4.57e-4,-0.005 0.0019,-0.0064 0.0023,-0.0014 0.0033,-0.005 0.0022,-0.008 -0.0011,-0.0029 -3.68e-4,-0.0064 0.0017,-0.0076 0.0021,-0.0013 0.0039,-8e-6 0.0041,0.0028 4.57e-4,0.0059 0.0066,-0.01658 0.0092,-0.03369 9.61e-4,-0.0063 0.0045,-0.013 0.0079,-0.01489 0.0034,-0.0019 0.0051,-0.0051 0.0039,-0.0071 -0.0012,-0.002 -5.75e-4,-0.0037 0.0015,-0.0037 0.0021,0 0.01009,-0.0095 0.01782,-0.02119 0.0077,-0.01166 0.02241,-0.02844 0.03261,-0.03729 0.02232,-0.01938 0.07324,-0.04467 0.101739,-0.05054 0.02657,-0.0055 0.08047,-0.0055 0.107037,0 0.03284,0.0068 0.0805,0.0317 0.107714,0.05638 0.02258,0.02048 0.05162,0.05655 0.04552,0.05655 -0.0014,0 0.0019,0.0059 0.0073,0.013 0.02491,0.03266 0.03569,0.106734 0.02398,0.164736 -0.0104,0.05151 -0.05295,0.118101 -0.08358,0.130787 -0.0065,0.0027 -0.01189,0.0066 -0.01189,0.0086 0,0.002 -0.0018,0.0025 -0.004,0.0012 -0.0022,-0.0014 -0.0038,-10e-4 -0.0034,7.46e-4 0.0014,0.0079 -6.93e-4,0.01324 -0.0043,0.01103 -0.0021,-0.0013 -0.0039,-9.39e-4 -0.0039,8.63e-4 0,0.0018 -0.0088,0.0067 -0.01953,0.01086 -0.01074,0.0042 -0.01953,0.0091 -0.01953,0.01086 0,0.0018 -0.0016,0.0023 -0.0036,0.001 -0.002,-0.0012 -0.0048,-4.33e-4 -0.0061,0.0018 -0.0014,0.0022 -0.004,0.0031 -0.0059,0.002 -0.0019,-0.0011 -0.0044,-3.71e-4 -0.0057,0.0017 -0.0013,0.0021 -0.0048,0.0029 -0.0077,0.0017 -0.0029,-0.0011 -0.0064,-3.38e-4 -0.0077,0.0018 -0.0013,0.0021 -0.0094,0.0029 -0.01797,0.0017 -0.01026,-0.0014 -0.01563,-5.77e-4 -0.01563,0.0023 0,0.0026 -0.0071,0.0044 -0.01758,0.0044 -0.01048,0 -0.01758,-0.0018 -0.01758,-0.0044 z"
   id="path1128"
   inkscape:connector-curvature="0" /><path
   style="opacity:0.98999999;fill:#999999;fill-opacity:0.98469388;stroke:none;stroke-width:0.0390625;stroke-linecap:round;stroke-miterlimit:4;stroke-dasharray:none;stroke-opacity:1"
   d="m 17.658385,13.302482 c -0.0015,-0.0025 -0.0081,-0.0035 -0.01551,-0.0023 -0.0071,0.0011 -0.01386,0.001 -0.01512,-2.15e-4 -0.0013,-0.0013 -0.0065,-0.0027 -0.01158,-0.0033 -0.0093,-9.9e-4 -0.0422,-0.01417 -0.05323,-0.02131 -0.0032,-0.0021 -0.0085,-0.005 -0.01172,-0.0065 -0.0071,-0.0033 -0.01189,-0.0072 -0.02885,-0.02348 -0.0072,-0.0069 -0.01419,-0.01145 -0.01555,-0.01009 -0.0014,0.0014 -0.0025,-3e-4 -0.0025,-0.0037 0,-0.0034 -0.0052,-0.01052 -0.0115,-0.01584 -0.0063,-0.0053 -0.01047,-0.01071 -0.0092,-0.01197 0.0013,-0.0013 -5.93e-4,-0.0034 -0.0041,-0.0048 -0.0035,-0.0014 -0.0064,-0.0049 -0.0064,-0.0079 0,-0.003 -0.0019,-0.0054 -0.0041,-0.0054 -0.0023,0 -0.003,-0.0018 -0.0017,-0.0039 0.0013,-0.0021 6.71e-4,-0.0039 -0.0015,-0.0039 -0.0039,0 -0.01053,-0.01501 -0.0091,-0.02051 4.26e-4,-0.0016 -9.84e-4,-0.0029 -0.0031,-0.0029 -0.0021,0 -0.0037,-0.0013 -0.0034,-0.0029 2.55e-4,-0.0016 3.5e-5,-0.0042 -4.88e-4,-0.0059 -5.23e-4,-0.0016 -0.0014,-0.0047 -0.0019,-0.0068 -5.37e-4,-0.0021 -0.0013,-0.0043 -0.0018,-0.0049 -9.18e-4,-0.0011 -0.0036,-0.01247 -0.0062,-0.02637 -0.0027,-0.01431 -0.0027,-0.08153 -1.3e-5,-0.09917 0.0027,-0.0175 0.0052,-0.02285 0.0097,-0.02009 0.0038,0.0023 0.0089,-0.0206 0.0058,-0.02566 -0.0012,-0.0019 -2.01e-4,-0.0035 0.0022,-0.0035 0.0024,0 0.0034,-0.0016 0.0021,-0.0036 -0.0012,-0.002 4.33e-4,-0.0062 0.0037,-0.0095 0.0032,-0.0032 0.0059,-0.0077 0.0059,-0.0099 0,-0.0022 0.0048,-0.0085 0.0107,-0.01395 0.0059,-0.0055 0.0092,-0.0099 0.0073,-0.0099 -0.0019,0 0.0087,-0.01191 0.02348,-0.02647 0.047,-0.04628 0.09927,-0.06728 0.167506,-0.06728 0.04497,0 0.07606,0.0072 0.111728,0.0259 0.03729,0.01955 0.09222,0.07107 0.09485,0.08896 4.38e-4,0.003 0.0054,0.01221 0.01105,0.02048 0.0229,0.0336 0.03237,0.104308 0.0211,0.157622 -0.01145,0.05415 -0.05295,0.119774 -0.08384,0.132569 -0.0062,0.0026 -0.01335,0.0086 -0.01591,0.01335 -0.0038,0.007 -0.04808,0.03116 -0.05256,0.02861 -6.77e-4,-3.86e-4 -0.0041,0.0017 -0.0077,0.0047 -0.0036,0.0029 -0.0065,0.0041 -0.0065,0.0025 0,-0.0016 -0.0026,-7.85e-4 -0.0057,0.0018 -0.0031,0.0026 -0.0074,0.0037 -0.0095,0.0024 -0.0021,-0.0013 -0.0048,-6.82e-4 -0.0061,0.0014 -0.0013,0.002 -0.0082,0.0028 -0.0154,0.0016 -0.0077,-0.0012 -0.01422,-3.22e-4 -0.01578,0.0022 -0.0015,0.0024 -0.01038,0.0043 -0.0198,0.0043 -0.0094,0 -0.01832,-0.002 -0.0198,-0.0043 z"
   id="path1130"
   inkscape:connector-curvature="0" /><path
   style="opacity:0.98999999;fill:#999999;fill-opacity:0.98469388;stroke:none;stroke-width:0.0390625;stroke-linecap:round;stroke-miterlimit:4;stroke-dasharray:none;stroke-opacity:1"
   d="m 17.664261,22.134819 2.436523,-9.83e-4 v -0.68945 c 0,-0.61024 6.73e-4,-0.68945 0.0059,-0.68945 0.0052,0 0.0059,0.07943 0.0059,0.691406 v 0.691406 l -2.442383,-9.73e-4 -2.442383,-9.73e-4 z"
   id="path1132"
   inkscape:connector-curvature="0" /><path
   style="opacity:0.98999999;fill:#999999;fill-opacity:0.98469388;stroke:none;stroke-width:0.0390625;stroke-linecap:round;stroke-miterlimit:4;stroke-dasharray:none;stroke-opacity:1"
   d="m 20.108134,20.765678 -4.62e-4,-0.0127 -0.003,0.01172 c -0.0016,0.0064 -0.0032,-0.414991 -0.0034,-0.936524 -4.1e-4,-0.840483 2.04e-4,-0.948242 0.0054,-0.948242 0.0052,0 0.0059,0.108073 0.0059,0.949219 0,0.52207 -8.79e-4,0.949218 -0.002,0.949218 -0.0011,0 -0.0022,-0.0057 -0.0024,-0.01269 z"
   id="path1134"
   inkscape:connector-curvature="0" /><path
   style="opacity:0.98999999;fill:#999999;fill-opacity:0.98469388;stroke:none;stroke-width:0.0390625;stroke-linecap:round;stroke-miterlimit:4;stroke-dasharray:none;stroke-opacity:1"
   d="m 15.225784,19.678764 v -1.736328 h 2.4375 2.4375 l 8.12e-4,0.526367 c 4.48e-4,0.289502 0.0018,0.500879 0.0029,0.469727 l 0.0021,-0.05664 0.003,0.08789 c 0.0017,0.04834 0.0029,0.61831 0.0027,1.266601 l -3.29e-4,1.178711 H 17.66883 15.225693 Z m 2.521484,1.251452 c 0.145602,-0.02527 0.238622,-0.07237 0.332547,-0.168379 l 0.04687,-0.04792 0.0065,-0.03125 c 0.0036,-0.01719 0.0084,-0.04355 0.01059,-0.05859 0.0027,-0.01846 0.0037,-0.336901 0.0029,-0.980469 -0.0013,-1.018465 -1.26e-4,-0.95385 -0.01811,-1.019618 -0.0059,-0.02176 -0.09305,-0.110007 -0.138281,-0.140099 -0.162636,-0.108215 -0.40302,-0.116733 -0.590185,-0.02091 -0.08169,0.04182 -0.142022,0.09896 -0.176241,0.166906 -0.01874,0.03721 -0.02498,0.06225 -0.02927,0.117375 -0.0023,0.02933 -0.0038,0.391092 -0.0039,0.909864 -9.6e-5,0.939281 -6.76e-4,0.912871 0.02195,0.999935 0.02725,0.104892 0.09294,0.165889 0.245545,0.228006 0.05281,0.0215 0.126961,0.04556 0.141529,0.04593 0.0059,1.51e-4 0.01433,0.0018 0.01863,0.0037 0.0095,0.0042 0.09661,0.0011 0.128906,-0.0045 z m 2.356443,-0.436301 c -6.04e-4,-0.06161 -0.0011,-0.01007 -0.0011,0.114537 1e-6,0.124609 4.95e-4,0.175021 0.0011,0.112025 6.03e-4,-0.06299 6.03e-4,-0.164948 -1e-6,-0.226562 z m -2.917737,-0.782924 c -4.24e-4,-0.383309 -0.0019,-0.620016 -0.0034,-0.545899 -0.0056,0.283108 -0.0035,1.222656 0.0028,1.222656 7.29e-4,0 9.88e-4,-0.304541 5.77e-4,-0.676757 z"
   id="path1136"
   inkscape:connector-curvature="0" /><path
   style="opacity:0.98999999;fill:#999999;fill-opacity:0.98469388;stroke:none;stroke-width:0.0390625;stroke-linecap:round;stroke-miterlimit:4;stroke-dasharray:none;stroke-opacity:1"
   d="m 15.225784,19.678764 v -1.736328 h 2.4375 2.4375 l 3.91e-4,0.479492 c 2.14e-4,0.263721 0.0016,0.475098 0.0032,0.469727 0.0067,-0.02346 0.0081,0.20847 0.0081,1.331054 l 10e-6,1.192383 h -2.44336 -2.443359 z m 2.546875,1.245453 c 0.129506,-0.02568 0.213801,-0.07 0.303127,-0.159358 0.05106,-0.05108 0.05138,-0.05163 0.06292,-0.109532 0.0066,-0.03323 0.007,-0.08738 0.007,-0.986329 0,-0.990735 8.9e-5,-0.984928 -0.01596,-1.038975 -0.0051,-0.01721 -0.01283,-0.02726 -0.05156,-0.06714 -0.05748,-0.05919 -0.0848,-0.07991 -0.143419,-0.108749 -0.08047,-0.03959 -0.154535,-0.05585 -0.253906,-0.05574 -0.196725,2.28e-4 -0.369537,0.08367 -0.448369,0.216501 -0.02532,0.04267 -0.03352,0.07616 -0.03788,0.15488 -0.0053,0.09559 -0.0052,1.687782 1.2e-4,1.762504 0.01179,0.165885 0.05125,0.238839 0.165227,0.305508 0.05768,0.03374 0.189079,0.08429 0.240702,0.09261 0.01353,0.0022 0.02536,0.0047 0.0263,0.0057 0.0047,0.0047 0.102443,-0.0033 0.145697,-0.01185 z m -0.586646,-1.150726 c -3.89e-4,-0.322803 -0.0019,-0.553516 -0.0034,-0.512696 -0.0057,0.156541 -0.0033,1.09961 0.0028,1.09961 7.26e-4,0 0.001,-0.264112 6.12e-4,-0.586914 z"
   id="path1138"
   inkscape:connector-curvature="0" /><path
   style="opacity:0.98999999;fill:#999999;fill-opacity:0.98469388;stroke:none;stroke-width:0.0390625;stroke-linecap:round;stroke-miterlimit:4;stroke-dasharray:none;stroke-opacity:1"
   d="m 15.225784,19.678764 v -1.736328 h 2.437174 2.437173 l 0.0021,0.46582 c 0.0011,0.256201 0.0038,0.489551 0.0058,0.518555 0.0023,0.03174 0.0039,0.537563 0.0041,1.270508 l 3.58e-4,1.217773 h -2.44336 -2.443359 z m 2.506214,1.251727 c 0.04552,-0.0055 0.121584,-0.02488 0.160977,-0.04105 0.07019,-0.02882 0.127143,-0.06838 0.188562,-0.13098 0.04445,-0.04531 0.046,-0.04815 0.05721,-0.105089 0.005,-0.02515 0.0059,-0.142002 0.0068,-0.826171 0.0012,-0.899218 -0.0011,-1.138637 -0.01103,-1.176952 -0.0035,-0.01353 -0.0093,-0.03023 -0.0128,-0.03711 -0.0092,-0.01802 -0.100729,-0.107777 -0.128357,-0.125927 -0.05522,-0.03628 -0.12114,-0.06308 -0.193453,-0.07866 -0.05184,-0.01117 -0.190173,-0.01002 -0.246,0.002 -0.183774,0.03972 -0.318339,0.145813 -0.349989,0.275941 -0.01175,0.04831 -0.01376,0.221274 -0.01214,1.044955 0.0017,0.859634 0.0013,0.841032 0.02054,0.917474 0.028,0.111085 0.0929,0.172405 0.249846,0.236043 0.120452,0.04884 0.171053,0.05737 0.26983,0.04548 z m -0.545336,-1.074969 c -3.9e-5,-0.309187 -0.0014,-0.471599 -0.0039,-0.467774 -0.0052,0.0079 -0.0031,0.941407 0.0021,0.941407 0.001,0 0.0018,-0.213135 0.0018,-0.473633 z"
   id="path1140"
   inkscape:connector-curvature="0" /><path
   style="opacity:0.98999999;fill:#999999;fill-opacity:0.98469388;stroke:none;stroke-width:0.0390625;stroke-linecap:round;stroke-miterlimit:4;stroke-dasharray:none;stroke-opacity:1"
   d="m 17.181843,20.12603 c -0.004,-0.256336 -0.0032,-0.700517 0.0013,-0.684935 0.0021,0.0072 0.0032,0.190496 0.0026,0.441406 -8.8e-4,0.380027 -0.0013,0.407865 -0.0039,0.243529 z"
   id="path1142"
   inkscape:connector-curvature="0" /><path
   style="opacity:0.98999999;fill:#999999;fill-opacity:0.98469388;stroke:none;stroke-width:0.0390625;stroke-linecap:round;stroke-miterlimit:4;stroke-dasharray:none;stroke-opacity:1"
   d="m 20.10338,18.308978 c -0.0014,-0.161487 -0.0026,-0.464709 -0.0026,-0.673825 v -0.380211 l -2.436523,-9.83e-4 -2.436524,-9.82e-4 2.442383,-9.74e-4 2.442383,-9.73e-4 v 0.675781 c 0,0.37168 -0.0015,0.675781 -0.0033,0.675781 -0.0018,0 -0.0044,-0.132126 -0.0059,-0.293614 z"
   id="path1144"
   inkscape:connector-curvature="0" /><path
   style="opacity:0.98999999;fill:#999999;fill-opacity:0.98469388;stroke:none;stroke-width:0.0390625;stroke-linecap:round;stroke-miterlimit:4;stroke-dasharray:none;stroke-opacity:1"
   d="m 20.100784,15.231498 c 0,-0.921006 6.66e-4,-1.039062 0.0059,-1.039062 0.0052,0 0.0059,0.118056 0.0059,1.039062 0,0.921007 -6.66e-4,1.039063 -0.0059,1.039063 -0.0052,0 -0.0059,-0.118056 -0.0059,-1.039063 z"
   id="path1146"
   inkscape:connector-curvature="0" /><path
   style="opacity:0.98999999;fill:#999999;fill-opacity:0.98469388;stroke:none;stroke-width:0.0390625;stroke-linecap:round;stroke-miterlimit:4;stroke-dasharray:none;stroke-opacity:1"
   d="m 20.110392,16.059623 c 0,-0.0956 5.09e-4,-0.134716 0.0011,-0.08691 6.22e-4,0.0478 6.22e-4,0.126026 0,0.173829 -6.21e-4,0.0478 -0.0011,0.0087 -0.0011,-0.08692 z"
   id="path1148"
   inkscape:connector-curvature="0" /><path
   style="opacity:0.98999999;fill:#999999;fill-opacity:0.98469388;stroke:none;stroke-width:0.0390625;stroke-linecap:round;stroke-miterlimit:4;stroke-dasharray:none;stroke-opacity:1"
   d="m 20.110397,16.053764 c 1e-6,-0.09883 5.08e-4,-0.138698 0.0011,-0.0886 6.19e-4,0.0501 6.18e-4,0.130958 -1e-6,0.179687 -6.2e-4,0.04873 -0.0011,0.0077 -0.0011,-0.09109 z"
   id="path1150"
   inkscape:connector-curvature="0" /><path
   style="opacity:0.98999999;fill:#999999;fill-opacity:0.98469388;stroke:none;stroke-width:0.0390625;stroke-linecap:round;stroke-miterlimit:4;stroke-dasharray:none;stroke-opacity:1"
   d="m 20.110232,16.15728 c 0,-0.0419 5.74e-4,-0.05903 0.0013,-0.03809 7.02e-4,0.02095 7.02e-4,0.05522 0,0.07617 -7.03e-4,0.02095 -0.0013,0.0038 -0.0013,-0.03809 z"
   id="path1152"
   inkscape:connector-curvature="0" /><path
   style="opacity:0.98999999;fill:#999999;fill-opacity:0.98469388;stroke:none;stroke-width:0.0390625;stroke-linecap:round;stroke-miterlimit:4;stroke-dasharray:none;stroke-opacity:1"
   d="m 15.225784,15.239296 v -1.04689 l 1.004883,9.92e-4 1.004883,9.91e-4 0.05161,0.01857 c 0.05469,0.01968 0.150423,0.04466 0.212057,0.05535 0.07155,0.0124 0.136989,0.01554 0.228829,0.01097 0.121966,-0.0061 0.226629,-0.02683 0.347773,-0.06901 l 0.05121,-0.01783 h 0.986876 0.986875 l 7.38e-4,0.03613 7.38e-4,0.03613 0.0022,-0.03516 0.0022,-0.03516 0.0029,0.05078 c 0.0038,0.06647 0.0038,1.911893 0,1.974973 l -0.0029,0.04847 -0.0022,-0.03516 -0.0022,-0.03516 -7.38e-4,0.03585 c -6.43e-4,0.03123 1.45e-4,0.03608 0.0061,0.03763 0.0051,0.0013 0.0047,0.0019 -0.002,0.0022 -0.005,2.58e-4 -0.0088,0.003 -0.0088,0.0063 0,0.0052 -0.273221,0.0059 -2.435547,0.0059 H 15.22574 Z"
   id="path1154"
   inkscape:connector-curvature="0" /><path
   style="opacity:0.98999999;fill:#999999;fill-opacity:0.98469388;stroke:none;stroke-width:0.0390625;stroke-linecap:round;stroke-miterlimit:4;stroke-dasharray:none;stroke-opacity:1"
   d="m 15.225784,15.239311 v -1.046875 h 1.002383 1.002383 l 0.05645,0.0195 c 0.06049,0.02089 0.159876,0.04656 0.219661,0.05673 0.06126,0.01042 0.136377,0.01372 0.218898,0.0096 0.119856,-0.006 0.223725,-0.02612 0.341467,-0.06625 l 0.05747,-0.01959 h 0.988143 0.988144 l 6.74e-4,0.02637 6.74e-4,0.02637 0.0023,-0.02539 c 0.0062,-0.06935 0.0081,0.17716 0.0081,1.023443 0,0.845996 -0.0018,1.070809 -0.0081,0.999994 l -0.0023,-0.02539 -6.74e-4,0.02604 c -4.58e-4,0.01772 8.87e-4,0.02667 0.0042,0.02801 0.0039,0.0016 0.0039,0.002 0,0.0023 -0.0027,1.69e-4 -0.0049,0.0029 -0.0049,0.0062 0,0.0052 -0.273438,0.0059 -2.4375,0.0059 h -2.4375 z"
   id="path1156"
   inkscape:connector-curvature="0" /><path
   style="opacity:0.98999999;fill:#999999;fill-opacity:0.98469388;stroke:none;stroke-width:0.0390625;stroke-linecap:round;stroke-miterlimit:4;stroke-dasharray:none;stroke-opacity:1"
   d="m 20.114438,13.741264 c 1e-6,-0.956055 4.48e-4,-1.346585 9.94e-4,-0.867845 5.47e-4,0.47874 5.47e-4,1.260966 0,1.738281 -5.46e-4,0.477315 -9.94e-4,0.08562 -9.94e-4,-0.870436 z"
   id="path1158"
   inkscape:connector-curvature="0" /><path
   style="opacity:0.98999999;fill:#999999;fill-opacity:0.98469388;stroke:none;stroke-width:0.0390625;stroke-linecap:round;stroke-miterlimit:4;stroke-dasharray:none;stroke-opacity:1"
   d="m 20.108134,14.207084 c -4.33e-4,-0.01558 -6.45e-4,-0.01588 -0.0034,-0.0049 -0.0016,0.0064 -0.0032,-0.485303 -0.0034,-1.092774 -4.1e-4,-0.979372 2.02e-4,-1.104492 0.0054,-1.104492 0.0052,0 0.0059,0.125868 0.0059,1.109375 0,0.610156 -8.79e-4,1.109375 -0.002,1.109375 -0.0011,0 -0.0022,-0.0075 -0.0024,-0.0166 z"
   id="path1160"
   inkscape:connector-curvature="0" /><path
   style="opacity:0.98999999;fill:#999999;fill-opacity:0.98469388;stroke:none;stroke-width:0.0390625;stroke-linecap:round;stroke-miterlimit:4;stroke-dasharray:none;stroke-opacity:1"
   d="m 20.101421,10.980522 c -5.65e-4,-0.944728 2.7e-5,-1.0654298 0.0052,-1.0654298 0.0052,0 0.0058,0.1202478 0.0052,1.0615238 -3.75e-4,0.583838 -0.0016,1.053613 -0.0027,1.043945 l -0.002,-0.01758 -0.0025,0.02148 c -0.0014,0.01182 -0.0028,-0.457959 -0.0031,-1.043945 z"
   id="path1162"
   inkscape:connector-curvature="0" /><path
   style="opacity:0.98999999;fill:#ffffff;fill-opacity:0.98469388;stroke:none;stroke-width:0.0390625;stroke-linecap:round;stroke-miterlimit:4;stroke-dasharray:none;stroke-opacity:1"
   d="m 20.114416,10.663139 c 0,-0.414648 4.58e-4,-0.583698 0.001,-0.375666 5.59e-4,0.208032 5.59e-4,0.54729 0,0.753906 -5.59e-4,0.206617 -0.001,0.03641 -0.001,-0.37824 z"
   id="path1164"
   inkscape:connector-curvature="0" /><path
   style="opacity:0.98999999;fill:#ffffff;fill-opacity:0.98469388;stroke:none;stroke-width:0.22097087;stroke-linecap:round;stroke-miterlimit:4;stroke-dasharray:none;stroke-opacity:1"
   d="M 8.9921622,10.963561 V 3.7488621 h 8.5073788 8.507378 V 10.963561 18.17826 H 23.554143 21.101366 V 13.751756 9.3252527 L 21.040599,9.2054173 C 20.972427,9.0709787 20.850798,8.9727059 20.713038,8.9407563 20.663231,8.9292049 19.364495,8.9204102 17.663755,8.9201077 14.36595,8.9195199 14.552941,8.9110373 14.402474,9.0680658 14.236724,9.2410423 14.251269,8.7920653 14.251269,13.735648 V 18.17826 H 11.621716 8.9921622 Z"
   id="path1166"
   inkscape:connector-curvature="0" /><path
   style="opacity:0.98999999;fill:#999999;fill-opacity:0.98469388;stroke:none;stroke-width:0.15625;stroke-linecap:round;stroke-miterlimit:4;stroke-dasharray:none;stroke-opacity:1"
   d="m 15.261189,23.596006 -0.04337,-0.0066 0.0043,-0.237204 0.0043,-0.237205 h 2.445313 2.445312 v 0.242187 0.242188 l -2.40625,0.0017 c -1.323437,9.13e-4 -2.425766,-0.0013 -2.449619,-0.005 z"
   id="path1180"
   inkscape:connector-curvature="0" /></svg>